M48
;Layer_Color=9474304
;FILE_FORMAT=2:5
INCH,LZ
;TYPE=PLATED
T1F00S00C0.01575
T2F00S00C0.03543
%
T01
X0166732Y0009547
Y0052067
X0159645
X0152559
X0131299
Y004498
X0117126
Y0052067
X0110039
X0102953
Y004498
X0095866
Y0052067
X0088779
Y004498
Y0037894
X0095866
X0117126
Y002372
Y0016634
Y0009547
X0110039
Y0016634
X0102953
Y0009547
X0095866
Y0016634
X0088779
Y0009547
X0081693
Y0016634
X0074606
Y0009547
X0067519
Y0016634
X0060433
Y0009547
X0025
Y0016634
X0017913
Y0009547
X0010826
Y0016634
Y004498
X0017913
X0025
X0032086
Y0052067
X0025
X0017913
X0010826
X0060433
X0067519
X0074606
X0081693
Y004498
X0074606
Y0037894
X0067519Y004498
X0053346
X0131299Y002372
Y0016634
X0138385
Y0009547
X0145472
X0152559
X0159645
X0152559Y0016634
X0131299Y0009547
X000374
Y0016634
Y004498
Y0052067
T02
X0163583Y0021201
Y0031201
Y0041201
X0124311Y0037264
Y0027264
X0008957Y0027756
Y0037756
M30
