G04 Layer_Color=32896*
%FSLAX25Y25*%
%MOIN*%
G70*
G01*
G75*
%ADD44C,0.01000*%
D44*
X129792Y11614D02*
X131791Y13613D01*
Y15613D01*
X129792Y17612D01*
X122794Y15613D02*
X125793D01*
X126793Y14613D01*
Y12614D01*
X125793Y11614D01*
X122794D01*
X120795D02*
X118796Y13613D01*
Y15613D01*
X120795Y17612D01*
X105800Y16612D02*
X106799Y17612D01*
X108799D01*
X109799Y16612D01*
Y15613D01*
X108799Y14613D01*
X106799D01*
X105800Y13613D01*
Y12614D01*
X106799Y11614D01*
X108799D01*
X109799Y12614D01*
X103800Y17612D02*
Y11614D01*
Y14613D01*
X102801Y15613D01*
X100801D01*
X99802Y14613D01*
Y11614D01*
X96803D02*
X94803D01*
X93804Y12614D01*
Y14613D01*
X94803Y15613D01*
X96803D01*
X97802Y14613D01*
Y12614D01*
X96803Y11614D01*
X87806Y17612D02*
Y11614D01*
X90805D01*
X91804Y12614D01*
Y14613D01*
X90805Y15613D01*
X87806D01*
X84807D02*
X82807D01*
X81808Y14613D01*
Y11614D01*
X84807D01*
X85806Y12614D01*
X84807Y13613D01*
X81808D01*
X79808Y11614D02*
Y15613D01*
X76809D01*
X75810Y14613D01*
Y11614D01*
X72810Y10615D02*
X71811Y11614D01*
Y12614D01*
X72810D01*
Y11614D01*
X71811D01*
X72810Y10615D01*
X73810Y9615D01*
X61814Y17612D02*
X57815D01*
X59815D01*
Y11614D01*
X55816Y15613D02*
Y12614D01*
X54816Y11614D01*
X51817D01*
Y15613D01*
X49818Y11614D02*
X47818D01*
X48818D01*
Y17612D01*
X49818D01*
X43820Y15613D02*
X41820D01*
X40821Y14613D01*
Y11614D01*
X43820D01*
X44820Y12614D01*
X43820Y13613D01*
X40821D01*
X28825Y11614D02*
X32823D01*
X28825Y15613D01*
Y16612D01*
X29824Y17612D01*
X31824D01*
X32823Y16612D01*
X26825D02*
X25826Y17612D01*
X23826D01*
X22827Y16612D01*
Y12614D01*
X23826Y11614D01*
X25826D01*
X26825Y12614D01*
Y16612D01*
X20827Y11614D02*
X18828D01*
X19828D01*
Y17612D01*
X20827Y16612D01*
X15829D02*
X14829Y17612D01*
X12830D01*
X11830Y16612D01*
Y15613D01*
X12830Y14613D01*
X11830Y13613D01*
Y12614D01*
X12830Y11614D01*
X14829D01*
X15829Y12614D01*
Y13613D01*
X14829Y14613D01*
X15829Y15613D01*
Y16612D01*
X14829Y14613D02*
X12830D01*
X121752Y54957D02*
Y48959D01*
X118753D01*
X117753Y49958D01*
Y53957D01*
X118753Y54957D01*
X121752D01*
X111755Y48959D02*
X115754D01*
X111755Y52957D01*
Y53957D01*
X112755Y54957D01*
X114754D01*
X115754Y53957D01*
X109756Y48959D02*
Y49958D01*
X108756D01*
Y48959D01*
X109756D01*
X100759Y54957D02*
X104757D01*
Y51958D01*
X102758Y52957D01*
X101758D01*
X100759Y51958D01*
Y49958D01*
X101758Y48959D01*
X103758D01*
X104757Y49958D01*
X91762Y52957D02*
X89762D01*
X88763Y51958D01*
Y48959D01*
X91762D01*
X92761Y49958D01*
X91762Y50958D01*
X88763D01*
X82765Y54957D02*
Y48959D01*
X85764D01*
X86763Y49958D01*
Y51958D01*
X85764Y52957D01*
X82765D01*
X79765D02*
X77766D01*
X76767Y51958D01*
Y48959D01*
X79765D01*
X80765Y49958D01*
X79765Y50958D01*
X76767D01*
X74767Y46959D02*
Y52957D01*
X71768D01*
X70768Y51958D01*
Y49958D01*
X71768Y48959D01*
X74767D01*
X67769Y53957D02*
Y52957D01*
X68769D01*
X66770D01*
X67769D01*
Y49958D01*
X66770Y48959D01*
X60772D02*
X62771D01*
X63771Y49958D01*
Y51958D01*
X62771Y52957D01*
X60772D01*
X59772Y51958D01*
Y50958D01*
X63771D01*
X57773Y52957D02*
Y48959D01*
Y50958D01*
X56773Y51958D01*
X55773Y52957D01*
X54774D01*
X45777Y54957D02*
Y48959D01*
X42777D01*
X41778Y49958D01*
Y50958D01*
Y51958D01*
X42777Y52957D01*
X45777D01*
X38779Y48959D02*
X36779D01*
X35780Y49958D01*
Y51958D01*
X36779Y52957D01*
X38779D01*
X39779Y51958D01*
Y49958D01*
X38779Y48959D01*
X32781Y52957D02*
X30781D01*
X29782Y51958D01*
Y48959D01*
X32781D01*
X33780Y49958D01*
X32781Y50958D01*
X29782D01*
X27782Y52957D02*
Y48959D01*
Y50958D01*
X26783Y51958D01*
X25783Y52957D01*
X24783D01*
X17786Y54957D02*
Y48959D01*
X20785D01*
X21784Y49958D01*
Y51958D01*
X20785Y52957D01*
X17786D01*
M02*
