G04 Layer_Color=8388736*
%FSLAX25Y25*%
%MOIN*%
G70*
G01*
G75*
%ADD30R,0.21457X0.07087*%
G04:AMPARAMS|DCode=31|XSize=66.93mil|YSize=55.12mil|CornerRadius=14.76mil|HoleSize=0mil|Usage=FLASHONLY|Rotation=270.000|XOffset=0mil|YOffset=0mil|HoleType=Round|Shape=RoundedRectangle|*
%AMROUNDEDRECTD31*
21,1,0.06693,0.02559,0,0,270.0*
21,1,0.03740,0.05512,0,0,270.0*
1,1,0.02953,-0.01280,-0.01870*
1,1,0.02953,-0.01280,0.01870*
1,1,0.02953,0.01280,0.01870*
1,1,0.02953,0.01280,-0.01870*
%
%ADD31ROUNDEDRECTD31*%
G04:AMPARAMS|DCode=32|XSize=82.68mil|YSize=66.93mil|CornerRadius=17.72mil|HoleSize=0mil|Usage=FLASHONLY|Rotation=180.000|XOffset=0mil|YOffset=0mil|HoleType=Round|Shape=RoundedRectangle|*
%AMROUNDEDRECTD32*
21,1,0.08268,0.03150,0,0,180.0*
21,1,0.04724,0.06693,0,0,180.0*
1,1,0.03543,-0.02362,0.01575*
1,1,0.03543,0.02362,0.01575*
1,1,0.03543,0.02362,-0.01575*
1,1,0.03543,-0.02362,-0.01575*
%
%ADD32ROUNDEDRECTD32*%
%ADD33R,0.03937X0.03543*%
G04:AMPARAMS|DCode=34|XSize=27.56mil|YSize=47.24mil|CornerRadius=7.87mil|HoleSize=0mil|Usage=FLASHONLY|Rotation=270.000|XOffset=0mil|YOffset=0mil|HoleType=Round|Shape=RoundedRectangle|*
%AMROUNDEDRECTD34*
21,1,0.02756,0.03150,0,0,270.0*
21,1,0.01181,0.04724,0,0,270.0*
1,1,0.01575,-0.01575,-0.00591*
1,1,0.01575,-0.01575,0.00591*
1,1,0.01575,0.01575,0.00591*
1,1,0.01575,0.01575,-0.00591*
%
%ADD34ROUNDEDRECTD34*%
G04:AMPARAMS|DCode=35|XSize=39.37mil|YSize=35.43mil|CornerRadius=9.84mil|HoleSize=0mil|Usage=FLASHONLY|Rotation=90.000|XOffset=0mil|YOffset=0mil|HoleType=Round|Shape=RoundedRectangle|*
%AMROUNDEDRECTD35*
21,1,0.03937,0.01575,0,0,90.0*
21,1,0.01969,0.03543,0,0,90.0*
1,1,0.01969,0.00787,0.00984*
1,1,0.01969,0.00787,-0.00984*
1,1,0.01969,-0.00787,-0.00984*
1,1,0.01969,-0.00787,0.00984*
%
%ADD35ROUNDEDRECTD35*%
G04:AMPARAMS|DCode=36|XSize=70.87mil|YSize=47.24mil|CornerRadius=12.8mil|HoleSize=0mil|Usage=FLASHONLY|Rotation=180.000|XOffset=0mil|YOffset=0mil|HoleType=Round|Shape=RoundedRectangle|*
%AMROUNDEDRECTD36*
21,1,0.07087,0.02165,0,0,180.0*
21,1,0.04528,0.04724,0,0,180.0*
1,1,0.02559,-0.02264,0.01083*
1,1,0.02559,0.02264,0.01083*
1,1,0.02559,0.02264,-0.01083*
1,1,0.02559,-0.02264,-0.01083*
%
%ADD36ROUNDEDRECTD36*%
%ADD37R,0.04724X0.02953*%
G04:AMPARAMS|DCode=38|XSize=39.37mil|YSize=35.43mil|CornerRadius=9.84mil|HoleSize=0mil|Usage=FLASHONLY|Rotation=180.000|XOffset=0mil|YOffset=0mil|HoleType=Round|Shape=RoundedRectangle|*
%AMROUNDEDRECTD38*
21,1,0.03937,0.01575,0,0,180.0*
21,1,0.01969,0.03543,0,0,180.0*
1,1,0.01969,-0.00984,0.00787*
1,1,0.01969,0.00984,0.00787*
1,1,0.01969,0.00984,-0.00787*
1,1,0.01969,-0.00984,-0.00787*
%
%ADD38ROUNDEDRECTD38*%
%ADD39R,0.03543X0.03937*%
G04:AMPARAMS|DCode=40|XSize=53.94mil|YSize=53.94mil|CornerRadius=14.47mil|HoleSize=0mil|Usage=FLASHONLY|Rotation=90.000|XOffset=0mil|YOffset=0mil|HoleType=Round|Shape=RoundedRectangle|*
%AMROUNDEDRECTD40*
21,1,0.05394,0.02500,0,0,90.0*
21,1,0.02500,0.05394,0,0,90.0*
1,1,0.02894,0.01250,0.01250*
1,1,0.02894,0.01250,-0.01250*
1,1,0.02894,-0.01250,-0.01250*
1,1,0.02894,-0.01250,0.01250*
%
%ADD40ROUNDEDRECTD40*%
%ADD41R,0.04331X0.15354*%
%ADD42C,0.08268*%
%ADD43R,0.08268X0.08268*%
D30*
X125295Y4429D02*
D03*
D31*
X39370Y52165D02*
D03*
X49213Y52165D02*
D03*
D32*
X44291Y40748D02*
D03*
D33*
X112008Y35728D02*
D03*
Y41240D02*
D03*
X56004Y33366D02*
D03*
Y27854D02*
D03*
X132776Y38780D02*
D03*
Y33268D02*
D03*
D34*
X149705Y28740D02*
D03*
Y32480D02*
D03*
Y36220D02*
D03*
X140256D02*
D03*
Y28740D02*
D03*
D35*
X144488Y47539D02*
D03*
X138976D02*
D03*
X89961Y27854D02*
D03*
X95472D02*
D03*
X147154Y23256D02*
D03*
X141642D02*
D03*
X114764Y28346D02*
D03*
X109252D02*
D03*
X76083Y27657D02*
D03*
X70571D02*
D03*
D36*
X82972Y38386D02*
D03*
Y27756D02*
D03*
X63976Y34252D02*
D03*
Y23622D02*
D03*
X19980Y37697D02*
D03*
Y27067D02*
D03*
X101870Y38386D02*
D03*
Y27756D02*
D03*
D37*
X33169Y26181D02*
D03*
Y33661D02*
D03*
X42618D02*
D03*
Y29921D02*
D03*
Y26181D02*
D03*
D38*
X50295Y33366D02*
D03*
Y27854D02*
D03*
X27067Y27854D02*
D03*
Y33366D02*
D03*
X60925Y46752D02*
D03*
Y41240D02*
D03*
D39*
X144488Y42028D02*
D03*
X138976D02*
D03*
D40*
X50295Y8854D02*
D03*
Y21854D02*
D03*
D41*
X43602Y14469D02*
D03*
X32579D02*
D03*
D42*
X8957Y27756D02*
D03*
X124311Y27264D02*
D03*
X163583Y41201D02*
D03*
Y31201D02*
D03*
D43*
X8957Y37756D02*
D03*
X124311Y37264D02*
D03*
X163583Y21201D02*
D03*
M02*
