G04 Layer_Color=16711935*
%FSLAX25Y25*%
%MOIN*%
G70*
G01*
G75*
%ADD43C,0.03150*%
%ADD64R,0.03543X0.03937*%
G04:AMPARAMS|DCode=65|XSize=39.37mil|YSize=35.43mil|CornerRadius=9.84mil|HoleSize=0mil|Usage=FLASHONLY|Rotation=90.000|XOffset=0mil|YOffset=0mil|HoleType=Round|Shape=RoundedRectangle|*
%AMROUNDEDRECTD65*
21,1,0.03937,0.01575,0,0,90.0*
21,1,0.01969,0.03543,0,0,90.0*
1,1,0.01969,0.00787,0.00984*
1,1,0.01969,0.00787,-0.00984*
1,1,0.01969,-0.00787,-0.00984*
1,1,0.01969,-0.00787,0.00984*
%
%ADD65ROUNDEDRECTD65*%
G04:AMPARAMS|DCode=71|XSize=17.72mil|YSize=25.59mil|CornerRadius=5.41mil|HoleSize=0mil|Usage=FLASHONLY|Rotation=270.000|XOffset=0mil|YOffset=0mil|HoleType=Round|Shape=RoundedRectangle|*
%AMROUNDEDRECTD71*
21,1,0.01772,0.01476,0,0,270.0*
21,1,0.00689,0.02559,0,0,270.0*
1,1,0.01083,-0.00738,-0.00345*
1,1,0.01083,-0.00738,0.00345*
1,1,0.01083,0.00738,0.00345*
1,1,0.01083,0.00738,-0.00345*
%
%ADD71ROUNDEDRECTD71*%
G04:AMPARAMS|DCode=76|XSize=39.37mil|YSize=35.43mil|CornerRadius=9.84mil|HoleSize=0mil|Usage=FLASHONLY|Rotation=0.000|XOffset=0mil|YOffset=0mil|HoleType=Round|Shape=RoundedRectangle|*
%AMROUNDEDRECTD76*
21,1,0.03937,0.01575,0,0,0.0*
21,1,0.01969,0.03543,0,0,0.0*
1,1,0.01969,0.00984,-0.00787*
1,1,0.01969,-0.00984,-0.00787*
1,1,0.01969,-0.00984,0.00787*
1,1,0.01969,0.00984,0.00787*
%
%ADD76ROUNDEDRECTD76*%
G04:AMPARAMS|DCode=78|XSize=17.72mil|YSize=25.59mil|CornerRadius=5.41mil|HoleSize=0mil|Usage=FLASHONLY|Rotation=180.000|XOffset=0mil|YOffset=0mil|HoleType=Round|Shape=RoundedRectangle|*
%AMROUNDEDRECTD78*
21,1,0.01772,0.01476,0,0,180.0*
21,1,0.00689,0.02559,0,0,180.0*
1,1,0.01083,-0.00345,0.00738*
1,1,0.01083,0.00345,0.00738*
1,1,0.01083,0.00345,-0.00738*
1,1,0.01083,-0.00345,-0.00738*
%
%ADD78ROUNDEDRECTD78*%
G04:AMPARAMS|DCode=82|XSize=102.36mil|YSize=51.18mil|CornerRadius=13.78mil|HoleSize=0mil|Usage=FLASHONLY|Rotation=180.000|XOffset=0mil|YOffset=0mil|HoleType=Round|Shape=RoundedRectangle|*
%AMROUNDEDRECTD82*
21,1,0.10236,0.02362,0,0,180.0*
21,1,0.07480,0.05118,0,0,180.0*
1,1,0.02756,-0.03740,0.01181*
1,1,0.02756,0.03740,0.01181*
1,1,0.02756,0.03740,-0.01181*
1,1,0.02756,-0.03740,-0.01181*
%
%ADD82ROUNDEDRECTD82*%
%ADD86C,0.05118*%
%ADD87C,0.04331*%
%ADD88R,0.09764X0.06890*%
G04:AMPARAMS|DCode=89|XSize=13.78mil|YSize=31.5mil|CornerRadius=4.43mil|HoleSize=0mil|Usage=FLASHONLY|Rotation=0.000|XOffset=0mil|YOffset=0mil|HoleType=Round|Shape=RoundedRectangle|*
%AMROUNDEDRECTD89*
21,1,0.01378,0.02264,0,0,0.0*
21,1,0.00492,0.03150,0,0,0.0*
1,1,0.00886,0.00246,-0.01132*
1,1,0.00886,-0.00246,-0.01132*
1,1,0.00886,-0.00246,0.01132*
1,1,0.00886,0.00246,0.01132*
%
%ADD89ROUNDEDRECTD89*%
G04:AMPARAMS|DCode=90|XSize=106.3mil|YSize=47.24mil|CornerRadius=12.8mil|HoleSize=0mil|Usage=FLASHONLY|Rotation=90.000|XOffset=0mil|YOffset=0mil|HoleType=Round|Shape=RoundedRectangle|*
%AMROUNDEDRECTD90*
21,1,0.10630,0.02165,0,0,90.0*
21,1,0.08071,0.04724,0,0,90.0*
1,1,0.02559,0.01083,0.04035*
1,1,0.02559,0.01083,-0.04035*
1,1,0.02559,-0.01083,-0.04035*
1,1,0.02559,-0.01083,0.04035*
%
%ADD90ROUNDEDRECTD90*%
G04:AMPARAMS|DCode=91|XSize=106.3mil|YSize=47.24mil|CornerRadius=12.8mil|HoleSize=0mil|Usage=FLASHONLY|Rotation=0.000|XOffset=0mil|YOffset=0mil|HoleType=Round|Shape=RoundedRectangle|*
%AMROUNDEDRECTD91*
21,1,0.10630,0.02165,0,0,0.0*
21,1,0.08071,0.04724,0,0,0.0*
1,1,0.02559,0.04035,-0.01083*
1,1,0.02559,-0.04035,-0.01083*
1,1,0.02559,-0.04035,0.01083*
1,1,0.02559,0.04035,0.01083*
%
%ADD91ROUNDEDRECTD91*%
G04:AMPARAMS|DCode=92|XSize=27.56mil|YSize=45.28mil|CornerRadius=7.87mil|HoleSize=0mil|Usage=FLASHONLY|Rotation=90.000|XOffset=0mil|YOffset=0mil|HoleType=Round|Shape=RoundedRectangle|*
%AMROUNDEDRECTD92*
21,1,0.02756,0.02953,0,0,90.0*
21,1,0.01181,0.04528,0,0,90.0*
1,1,0.01575,0.01476,0.00591*
1,1,0.01575,0.01476,-0.00591*
1,1,0.01575,-0.01476,-0.00591*
1,1,0.01575,-0.01476,0.00591*
%
%ADD92ROUNDEDRECTD92*%
G04:AMPARAMS|DCode=93|XSize=97.44mil|YSize=59.06mil|CornerRadius=15.75mil|HoleSize=0mil|Usage=FLASHONLY|Rotation=270.000|XOffset=0mil|YOffset=0mil|HoleType=Round|Shape=RoundedRectangle|*
%AMROUNDEDRECTD93*
21,1,0.09744,0.02756,0,0,270.0*
21,1,0.06594,0.05906,0,0,270.0*
1,1,0.03150,-0.01378,-0.03297*
1,1,0.03150,-0.01378,0.03297*
1,1,0.03150,0.01378,0.03297*
1,1,0.03150,0.01378,-0.03297*
%
%ADD93ROUNDEDRECTD93*%
G04:AMPARAMS|DCode=94|XSize=50.2mil|YSize=59.06mil|CornerRadius=13.53mil|HoleSize=0mil|Usage=FLASHONLY|Rotation=270.000|XOffset=0mil|YOffset=0mil|HoleType=Round|Shape=RoundedRectangle|*
%AMROUNDEDRECTD94*
21,1,0.05020,0.03199,0,0,270.0*
21,1,0.02313,0.05906,0,0,270.0*
1,1,0.02707,-0.01599,-0.01157*
1,1,0.02707,-0.01599,0.01157*
1,1,0.02707,0.01599,0.01157*
1,1,0.02707,0.01599,-0.01157*
%
%ADD94ROUNDEDRECTD94*%
G04:AMPARAMS|DCode=95|XSize=50.2mil|YSize=55.12mil|CornerRadius=13.53mil|HoleSize=0mil|Usage=FLASHONLY|Rotation=270.000|XOffset=0mil|YOffset=0mil|HoleType=Round|Shape=RoundedRectangle|*
%AMROUNDEDRECTD95*
21,1,0.05020,0.02805,0,0,270.0*
21,1,0.02313,0.05512,0,0,270.0*
1,1,0.02707,-0.01403,-0.01157*
1,1,0.02707,-0.01403,0.01157*
1,1,0.02707,0.01403,0.01157*
1,1,0.02707,0.01403,-0.01157*
%
%ADD95ROUNDEDRECTD95*%
G04:AMPARAMS|DCode=96|XSize=62.01mil|YSize=82.68mil|CornerRadius=16.49mil|HoleSize=0mil|Usage=FLASHONLY|Rotation=270.000|XOffset=0mil|YOffset=0mil|HoleType=Round|Shape=RoundedRectangle|*
%AMROUNDEDRECTD96*
21,1,0.06201,0.04971,0,0,270.0*
21,1,0.02904,0.08268,0,0,270.0*
1,1,0.03297,-0.02485,-0.01452*
1,1,0.03297,-0.02485,0.01452*
1,1,0.03297,0.02485,0.01452*
1,1,0.03297,0.02485,-0.01452*
%
%ADD96ROUNDEDRECTD96*%
G04:AMPARAMS|DCode=97|XSize=62.01mil|YSize=86.61mil|CornerRadius=16.49mil|HoleSize=0mil|Usage=FLASHONLY|Rotation=270.000|XOffset=0mil|YOffset=0mil|HoleType=Round|Shape=RoundedRectangle|*
%AMROUNDEDRECTD97*
21,1,0.06201,0.05364,0,0,270.0*
21,1,0.02904,0.08661,0,0,270.0*
1,1,0.03297,-0.02682,-0.01452*
1,1,0.03297,-0.02682,0.01452*
1,1,0.03297,0.02682,0.01452*
1,1,0.03297,0.02682,-0.01452*
%
%ADD97ROUNDEDRECTD97*%
G04:AMPARAMS|DCode=98|XSize=21.65mil|YSize=58.27mil|CornerRadius=6.4mil|HoleSize=0mil|Usage=FLASHONLY|Rotation=90.000|XOffset=0mil|YOffset=0mil|HoleType=Round|Shape=RoundedRectangle|*
%AMROUNDEDRECTD98*
21,1,0.02165,0.04547,0,0,90.0*
21,1,0.00886,0.05827,0,0,90.0*
1,1,0.01280,0.02274,0.00443*
1,1,0.01280,0.02274,-0.00443*
1,1,0.01280,-0.02274,-0.00443*
1,1,0.01280,-0.02274,0.00443*
%
%ADD98ROUNDEDRECTD98*%
G04:AMPARAMS|DCode=99|XSize=82.68mil|YSize=98.43mil|CornerRadius=21.65mil|HoleSize=0mil|Usage=FLASHONLY|Rotation=180.000|XOffset=0mil|YOffset=0mil|HoleType=Round|Shape=RoundedRectangle|*
%AMROUNDEDRECTD99*
21,1,0.08268,0.05512,0,0,180.0*
21,1,0.03937,0.09843,0,0,180.0*
1,1,0.04331,-0.01969,0.02756*
1,1,0.04331,0.01969,0.02756*
1,1,0.04331,0.01969,-0.02756*
1,1,0.04331,-0.01969,-0.02756*
%
%ADD99ROUNDEDRECTD99*%
G04:AMPARAMS|DCode=100|XSize=122.05mil|YSize=102.36mil|CornerRadius=26.58mil|HoleSize=0mil|Usage=FLASHONLY|Rotation=270.000|XOffset=0mil|YOffset=0mil|HoleType=Round|Shape=RoundedRectangle|*
%AMROUNDEDRECTD100*
21,1,0.12205,0.04921,0,0,270.0*
21,1,0.06890,0.10236,0,0,270.0*
1,1,0.05315,-0.02461,-0.03445*
1,1,0.05315,-0.02461,0.03445*
1,1,0.05315,0.02461,0.03445*
1,1,0.05315,0.02461,-0.03445*
%
%ADD100ROUNDEDRECTD100*%
D43*
X57677Y47933D02*
D03*
X43504Y41437D02*
D03*
D64*
X59449Y63976D02*
D03*
X64961D02*
D03*
X6890Y26969D02*
D03*
X12402D02*
D03*
X6807Y21547D02*
D03*
X12319D02*
D03*
D65*
X91929Y58661D02*
D03*
X97441D02*
D03*
X97146Y48524D02*
D03*
X91634D02*
D03*
X91604Y38642D02*
D03*
X97116D02*
D03*
X91604Y28425D02*
D03*
X97116D02*
D03*
X92490Y19094D02*
D03*
X98002D02*
D03*
X92588Y13780D02*
D03*
X98100D02*
D03*
X82087Y69488D02*
D03*
X87598D02*
D03*
X54921Y51181D02*
D03*
X49409D02*
D03*
X82087Y80315D02*
D03*
X87598D02*
D03*
X82087Y73966D02*
D03*
X87598D02*
D03*
D71*
X111221Y37795D02*
D03*
Y34646D02*
D03*
X106496Y36220D02*
D03*
X111221Y31627D02*
D03*
Y28478D02*
D03*
X106496Y30053D02*
D03*
X111221Y25459D02*
D03*
Y22310D02*
D03*
X106496Y23885D02*
D03*
X111221Y19291D02*
D03*
Y16142D02*
D03*
X106496Y17717D02*
D03*
X97638Y9514D02*
D03*
Y6365D02*
D03*
X92913Y7940D02*
D03*
D76*
X61614Y52461D02*
D03*
Y57973D02*
D03*
X70571Y76181D02*
D03*
Y81693D02*
D03*
D78*
X103543Y47244D02*
D03*
X100394D02*
D03*
X101969Y51968D02*
D03*
D82*
X5906Y53848D02*
D03*
Y43848D02*
D03*
Y33848D02*
D03*
D86*
X70866Y68898D02*
D03*
X65158Y68602D02*
D03*
D87*
X92246Y63657D02*
D03*
Y53657D02*
D03*
Y43657D02*
D03*
Y33658D02*
D03*
Y23658D02*
D03*
X97583D02*
D03*
Y63657D02*
D03*
Y33658D02*
D03*
Y53657D02*
D03*
Y43657D02*
D03*
D88*
X49409Y61319D02*
D03*
D89*
X45472Y55709D02*
D03*
X47441D02*
D03*
X49409D02*
D03*
X51378D02*
D03*
X53347D02*
D03*
Y66929D02*
D03*
X51378D02*
D03*
X49409D02*
D03*
X47441D02*
D03*
X45472D02*
D03*
D90*
X34744Y74803D02*
D03*
X45374D02*
D03*
D91*
X37205Y66142D02*
D03*
Y55512D02*
D03*
D92*
X64272Y81890D02*
D03*
Y78150D02*
D03*
Y74410D02*
D03*
X53839D02*
D03*
Y81890D02*
D03*
D93*
X112205Y58760D02*
D03*
Y81988D02*
D03*
D94*
Y73425D02*
D03*
D95*
X112402Y67028D02*
D03*
D96*
X104303Y80216D02*
D03*
D97*
X104500Y60532D02*
D03*
D98*
X103122Y75492D02*
D03*
Y65256D02*
D03*
Y67815D02*
D03*
Y72933D02*
D03*
Y70374D02*
D03*
D99*
X110728Y47933D02*
D03*
D100*
X109941Y7579D02*
D03*
M02*
