G04 Layer_Physical_Order=2*
G04 Layer_Color=16711680*
%FSLAX25Y25*%
%MOIN*%
G70*
G01*
G75*
%ADD10R,0.03150X0.03543*%
G04:AMPARAMS|DCode=11|XSize=35.43mil|YSize=31.5mil|CornerRadius=7.87mil|HoleSize=0mil|Usage=FLASHONLY|Rotation=90.000|XOffset=0mil|YOffset=0mil|HoleType=Round|Shape=RoundedRectangle|*
%AMROUNDEDRECTD11*
21,1,0.03543,0.01575,0,0,90.0*
21,1,0.01969,0.03150,0,0,90.0*
1,1,0.01575,0.00787,0.00984*
1,1,0.01575,0.00787,-0.00984*
1,1,0.01575,-0.00787,-0.00984*
1,1,0.01575,-0.00787,0.00984*
%
%ADD11ROUNDEDRECTD11*%
G04:AMPARAMS|DCode=17|XSize=13.78mil|YSize=21.65mil|CornerRadius=3.45mil|HoleSize=0mil|Usage=FLASHONLY|Rotation=270.000|XOffset=0mil|YOffset=0mil|HoleType=Round|Shape=RoundedRectangle|*
%AMROUNDEDRECTD17*
21,1,0.01378,0.01476,0,0,270.0*
21,1,0.00689,0.02165,0,0,270.0*
1,1,0.00689,-0.00738,-0.00345*
1,1,0.00689,-0.00738,0.00345*
1,1,0.00689,0.00738,0.00345*
1,1,0.00689,0.00738,-0.00345*
%
%ADD17ROUNDEDRECTD17*%
G04:AMPARAMS|DCode=22|XSize=35.43mil|YSize=31.5mil|CornerRadius=7.87mil|HoleSize=0mil|Usage=FLASHONLY|Rotation=0.000|XOffset=0mil|YOffset=0mil|HoleType=Round|Shape=RoundedRectangle|*
%AMROUNDEDRECTD22*
21,1,0.03543,0.01575,0,0,0.0*
21,1,0.01969,0.03150,0,0,0.0*
1,1,0.01575,0.00984,-0.00787*
1,1,0.01575,-0.00984,-0.00787*
1,1,0.01575,-0.00984,0.00787*
1,1,0.01575,0.00984,0.00787*
%
%ADD22ROUNDEDRECTD22*%
G04:AMPARAMS|DCode=24|XSize=13.78mil|YSize=21.65mil|CornerRadius=3.45mil|HoleSize=0mil|Usage=FLASHONLY|Rotation=180.000|XOffset=0mil|YOffset=0mil|HoleType=Round|Shape=RoundedRectangle|*
%AMROUNDEDRECTD24*
21,1,0.01378,0.01476,0,0,180.0*
21,1,0.00689,0.02165,0,0,180.0*
1,1,0.00689,-0.00345,0.00738*
1,1,0.00689,0.00345,0.00738*
1,1,0.00689,0.00345,-0.00738*
1,1,0.00689,-0.00345,-0.00738*
%
%ADD24ROUNDEDRECTD24*%
G04:AMPARAMS|DCode=28|XSize=98.43mil|YSize=47.24mil|CornerRadius=11.81mil|HoleSize=0mil|Usage=FLASHONLY|Rotation=180.000|XOffset=0mil|YOffset=0mil|HoleType=Round|Shape=RoundedRectangle|*
%AMROUNDEDRECTD28*
21,1,0.09843,0.02362,0,0,180.0*
21,1,0.07480,0.04724,0,0,180.0*
1,1,0.02362,-0.03740,0.01181*
1,1,0.02362,0.03740,0.01181*
1,1,0.02362,0.03740,-0.01181*
1,1,0.02362,-0.03740,-0.01181*
%
%ADD28ROUNDEDRECTD28*%
%ADD32C,0.00984*%
%ADD33C,0.01181*%
%ADD34C,0.00787*%
%ADD35C,0.01575*%
%ADD36C,0.00906*%
%ADD37C,0.01969*%
%ADD38C,0.02756*%
%ADD39C,0.04724*%
%ADD40C,0.03937*%
%ADD41C,0.02441*%
%ADD42C,0.02362*%
%ADD43C,0.03150*%
%ADD44C,0.02559*%
%ADD45R,0.09370X0.06496*%
G04:AMPARAMS|DCode=46|XSize=9.84mil|YSize=27.56mil|CornerRadius=2.46mil|HoleSize=0mil|Usage=FLASHONLY|Rotation=0.000|XOffset=0mil|YOffset=0mil|HoleType=Round|Shape=RoundedRectangle|*
%AMROUNDEDRECTD46*
21,1,0.00984,0.02264,0,0,0.0*
21,1,0.00492,0.02756,0,0,0.0*
1,1,0.00492,0.00246,-0.01132*
1,1,0.00492,-0.00246,-0.01132*
1,1,0.00492,-0.00246,0.01132*
1,1,0.00492,0.00246,0.01132*
%
%ADD46ROUNDEDRECTD46*%
G04:AMPARAMS|DCode=47|XSize=102.36mil|YSize=43.31mil|CornerRadius=10.83mil|HoleSize=0mil|Usage=FLASHONLY|Rotation=90.000|XOffset=0mil|YOffset=0mil|HoleType=Round|Shape=RoundedRectangle|*
%AMROUNDEDRECTD47*
21,1,0.10236,0.02165,0,0,90.0*
21,1,0.08071,0.04331,0,0,90.0*
1,1,0.02165,0.01083,0.04035*
1,1,0.02165,0.01083,-0.04035*
1,1,0.02165,-0.01083,-0.04035*
1,1,0.02165,-0.01083,0.04035*
%
%ADD47ROUNDEDRECTD47*%
G04:AMPARAMS|DCode=48|XSize=102.36mil|YSize=43.31mil|CornerRadius=10.83mil|HoleSize=0mil|Usage=FLASHONLY|Rotation=0.000|XOffset=0mil|YOffset=0mil|HoleType=Round|Shape=RoundedRectangle|*
%AMROUNDEDRECTD48*
21,1,0.10236,0.02165,0,0,0.0*
21,1,0.08071,0.04331,0,0,0.0*
1,1,0.02165,0.04035,-0.01083*
1,1,0.02165,-0.04035,-0.01083*
1,1,0.02165,-0.04035,0.01083*
1,1,0.02165,0.04035,0.01083*
%
%ADD48ROUNDEDRECTD48*%
G04:AMPARAMS|DCode=49|XSize=23.62mil|YSize=41.34mil|CornerRadius=5.91mil|HoleSize=0mil|Usage=FLASHONLY|Rotation=90.000|XOffset=0mil|YOffset=0mil|HoleType=Round|Shape=RoundedRectangle|*
%AMROUNDEDRECTD49*
21,1,0.02362,0.02953,0,0,90.0*
21,1,0.01181,0.04134,0,0,90.0*
1,1,0.01181,0.01476,0.00591*
1,1,0.01181,0.01476,-0.00591*
1,1,0.01181,-0.01476,-0.00591*
1,1,0.01181,-0.01476,0.00591*
%
%ADD49ROUNDEDRECTD49*%
G04:AMPARAMS|DCode=50|XSize=93.5mil|YSize=55.12mil|CornerRadius=13.78mil|HoleSize=0mil|Usage=FLASHONLY|Rotation=270.000|XOffset=0mil|YOffset=0mil|HoleType=Round|Shape=RoundedRectangle|*
%AMROUNDEDRECTD50*
21,1,0.09350,0.02756,0,0,270.0*
21,1,0.06594,0.05512,0,0,270.0*
1,1,0.02756,-0.01378,-0.03297*
1,1,0.02756,-0.01378,0.03297*
1,1,0.02756,0.01378,0.03297*
1,1,0.02756,0.01378,-0.03297*
%
%ADD50ROUNDEDRECTD50*%
G04:AMPARAMS|DCode=51|XSize=46.26mil|YSize=55.12mil|CornerRadius=11.57mil|HoleSize=0mil|Usage=FLASHONLY|Rotation=270.000|XOffset=0mil|YOffset=0mil|HoleType=Round|Shape=RoundedRectangle|*
%AMROUNDEDRECTD51*
21,1,0.04626,0.03199,0,0,270.0*
21,1,0.02313,0.05512,0,0,270.0*
1,1,0.02313,-0.01599,-0.01157*
1,1,0.02313,-0.01599,0.01157*
1,1,0.02313,0.01599,0.01157*
1,1,0.02313,0.01599,-0.01157*
%
%ADD51ROUNDEDRECTD51*%
G04:AMPARAMS|DCode=52|XSize=46.26mil|YSize=51.18mil|CornerRadius=11.57mil|HoleSize=0mil|Usage=FLASHONLY|Rotation=270.000|XOffset=0mil|YOffset=0mil|HoleType=Round|Shape=RoundedRectangle|*
%AMROUNDEDRECTD52*
21,1,0.04626,0.02805,0,0,270.0*
21,1,0.02313,0.05118,0,0,270.0*
1,1,0.02313,-0.01403,-0.01157*
1,1,0.02313,-0.01403,0.01157*
1,1,0.02313,0.01403,0.01157*
1,1,0.02313,0.01403,-0.01157*
%
%ADD52ROUNDEDRECTD52*%
G04:AMPARAMS|DCode=53|XSize=58.07mil|YSize=78.74mil|CornerRadius=14.52mil|HoleSize=0mil|Usage=FLASHONLY|Rotation=270.000|XOffset=0mil|YOffset=0mil|HoleType=Round|Shape=RoundedRectangle|*
%AMROUNDEDRECTD53*
21,1,0.05807,0.04971,0,0,270.0*
21,1,0.02904,0.07874,0,0,270.0*
1,1,0.02904,-0.02485,-0.01452*
1,1,0.02904,-0.02485,0.01452*
1,1,0.02904,0.02485,0.01452*
1,1,0.02904,0.02485,-0.01452*
%
%ADD53ROUNDEDRECTD53*%
G04:AMPARAMS|DCode=54|XSize=58.07mil|YSize=82.68mil|CornerRadius=14.52mil|HoleSize=0mil|Usage=FLASHONLY|Rotation=270.000|XOffset=0mil|YOffset=0mil|HoleType=Round|Shape=RoundedRectangle|*
%AMROUNDEDRECTD54*
21,1,0.05807,0.05364,0,0,270.0*
21,1,0.02904,0.08268,0,0,270.0*
1,1,0.02904,-0.02682,-0.01452*
1,1,0.02904,-0.02682,0.01452*
1,1,0.02904,0.02682,0.01452*
1,1,0.02904,0.02682,-0.01452*
%
%ADD54ROUNDEDRECTD54*%
G04:AMPARAMS|DCode=55|XSize=17.72mil|YSize=54.33mil|CornerRadius=4.43mil|HoleSize=0mil|Usage=FLASHONLY|Rotation=90.000|XOffset=0mil|YOffset=0mil|HoleType=Round|Shape=RoundedRectangle|*
%AMROUNDEDRECTD55*
21,1,0.01772,0.04547,0,0,90.0*
21,1,0.00886,0.05433,0,0,90.0*
1,1,0.00886,0.02274,0.00443*
1,1,0.00886,0.02274,-0.00443*
1,1,0.00886,-0.02274,-0.00443*
1,1,0.00886,-0.02274,0.00443*
%
%ADD55ROUNDEDRECTD55*%
G04:AMPARAMS|DCode=56|XSize=78.74mil|YSize=94.49mil|CornerRadius=19.69mil|HoleSize=0mil|Usage=FLASHONLY|Rotation=180.000|XOffset=0mil|YOffset=0mil|HoleType=Round|Shape=RoundedRectangle|*
%AMROUNDEDRECTD56*
21,1,0.07874,0.05512,0,0,180.0*
21,1,0.03937,0.09449,0,0,180.0*
1,1,0.03937,-0.01969,0.02756*
1,1,0.03937,0.01969,0.02756*
1,1,0.03937,0.01969,-0.02756*
1,1,0.03937,-0.01969,-0.02756*
%
%ADD56ROUNDEDRECTD56*%
G04:AMPARAMS|DCode=57|XSize=118.11mil|YSize=98.43mil|CornerRadius=24.61mil|HoleSize=0mil|Usage=FLASHONLY|Rotation=270.000|XOffset=0mil|YOffset=0mil|HoleType=Round|Shape=RoundedRectangle|*
%AMROUNDEDRECTD57*
21,1,0.11811,0.04921,0,0,270.0*
21,1,0.06890,0.09843,0,0,270.0*
1,1,0.04921,-0.02461,-0.03445*
1,1,0.04921,-0.02461,0.03445*
1,1,0.04921,0.02461,0.03445*
1,1,0.04921,0.02461,-0.03445*
%
%ADD57ROUNDEDRECTD57*%
%ADD58C,0.02362*%
%ADD59C,0.01378*%
G36*
X41240Y86485D02*
X41240Y69348D01*
X37913D01*
X37677Y69789D01*
X37789Y69955D01*
X37950Y70768D01*
Y74303D01*
X34744D01*
X31538D01*
Y70768D01*
X31700Y69955D01*
X31980Y69536D01*
X31902Y68883D01*
X31668Y68726D01*
X31207Y68037D01*
X31046Y67224D01*
Y66642D01*
X37205D01*
Y66142D01*
X37705D01*
Y62936D01*
X41240D01*
Y59547D01*
X40194Y58501D01*
X33169D01*
X32440Y58356D01*
X31821Y57943D01*
X31408Y57324D01*
X31307Y56816D01*
X27706D01*
X22092Y62430D01*
X22126Y62598D01*
X21970Y63382D01*
X21526Y64046D01*
X20862Y64490D01*
X20079Y64646D01*
X20005Y64706D01*
Y77788D01*
X20148Y77883D01*
X20592Y78547D01*
X20748Y79331D01*
X20592Y80114D01*
X20148Y80778D01*
X19484Y81222D01*
X18701Y81378D01*
X17917Y81222D01*
X17253Y80778D01*
X16809Y80114D01*
X16654Y79331D01*
X16809Y78547D01*
X17253Y77883D01*
X17396Y77788D01*
Y63976D01*
X17495Y63477D01*
X17778Y63054D01*
X18065Y62767D01*
X18032Y62598D01*
X18187Y61815D01*
X18631Y61151D01*
X19295Y60707D01*
X20079Y60551D01*
X20247Y60585D01*
X26243Y54589D01*
X26666Y54307D01*
X27165Y54207D01*
X28828D01*
X28996Y53707D01*
X28620Y53146D01*
X28465Y52362D01*
X23312D01*
X11149Y64525D01*
Y79036D01*
X11192Y79064D01*
X11636Y79728D01*
X11791Y80512D01*
X11636Y81295D01*
X11192Y81959D01*
X10527Y82403D01*
X9744Y82559D01*
X8961Y82403D01*
X8297Y81959D01*
X7853Y81295D01*
X7697Y80512D01*
X7853Y79728D01*
X8297Y79064D01*
X8339Y79036D01*
Y63943D01*
X8446Y63406D01*
X8751Y62950D01*
X15584Y56117D01*
X15393Y55655D01*
X11528D01*
X11500Y55798D01*
X11065Y56449D01*
X10414Y56884D01*
X9646Y57037D01*
X2165D01*
X1484Y56901D01*
X984Y57163D01*
Y86226D01*
X1338Y86579D01*
X41240Y86485D01*
D02*
G37*
G36*
X86099Y55738D02*
Y49285D01*
X85606Y48793D01*
X85606Y48792D01*
X85606Y48792D01*
X84650Y47836D01*
X84389Y47446D01*
X84297Y46985D01*
X84297Y46985D01*
Y35826D01*
X82879Y34407D01*
X82617Y34016D01*
X82526Y33556D01*
X82526Y33555D01*
Y21917D01*
X81527Y20919D01*
X81240Y20976D01*
X80457Y20820D01*
X79792Y20376D01*
X79349Y19712D01*
X79193Y18928D01*
X79349Y18145D01*
X79792Y17481D01*
X80457Y17037D01*
X81240Y16881D01*
X82024Y17037D01*
X82688Y17481D01*
X83131Y18145D01*
X83287Y18928D01*
X83230Y19215D01*
X83639Y19624D01*
X84101Y19433D01*
Y17398D01*
X80349Y13647D01*
X79823Y13998D01*
X79039Y14154D01*
X78256Y13998D01*
X77592Y13555D01*
X77148Y12890D01*
X76992Y12107D01*
X77148Y11323D01*
X77592Y10659D01*
X78256Y10215D01*
X79039Y10060D01*
X79823Y10215D01*
X80487Y10659D01*
X80670Y10934D01*
X80973Y10994D01*
X81364Y11255D01*
X85173Y15065D01*
X85673Y14858D01*
Y14135D01*
X85773Y13636D01*
X86055Y13213D01*
X86962Y12306D01*
X87024Y12265D01*
X87022Y12212D01*
X86873Y11765D01*
X86224Y11636D01*
X85560Y11192D01*
X85116Y10527D01*
X84961Y9744D01*
X85116Y8961D01*
X85560Y8297D01*
X86224Y7853D01*
X87008Y7697D01*
X87778Y7850D01*
X90768Y4860D01*
X91191Y4578D01*
X91691Y4478D01*
X94136D01*
X94635Y4578D01*
X95059Y4860D01*
X95379Y5181D01*
X95876Y5132D01*
X95930Y5051D01*
X96375Y4754D01*
X96900Y4649D01*
X97138D01*
Y6365D01*
X97638D01*
Y6865D01*
X99716D01*
X99642Y7234D01*
X99345Y7678D01*
X99213Y7767D01*
X99192Y8348D01*
X99205Y8373D01*
X99442Y8728D01*
X99530Y9170D01*
Y9859D01*
X99442Y10300D01*
X99192Y10675D01*
X99116Y10725D01*
X99222Y11256D01*
X99502Y11312D01*
X100023Y11660D01*
X100041Y11688D01*
X102953D01*
X103452Y11787D01*
X103599Y11885D01*
X104065Y11595D01*
X103990Y11024D01*
Y8079D01*
X109941D01*
Y7079D01*
X103990D01*
Y4134D01*
X104109Y3230D01*
X104457Y2389D01*
X104698Y2075D01*
X104452Y1575D01*
X80797D01*
X80511Y2075D01*
X80544Y2132D01*
X81098Y2242D01*
X81763Y2686D01*
X82206Y3350D01*
X82362Y4134D01*
X82206Y4917D01*
X81763Y5582D01*
X81098Y6025D01*
X80315Y6181D01*
X79532Y6025D01*
X78867Y5582D01*
X78424Y4917D01*
X78292Y4257D01*
X58909D01*
X58883Y4296D01*
X59150Y4796D01*
X67523D01*
X68060Y4903D01*
X68516Y5207D01*
X70091Y6783D01*
X70396Y7238D01*
X70503Y7776D01*
Y8591D01*
X70588Y8648D01*
X71045Y9332D01*
X71205Y10138D01*
X71045Y10945D01*
X70588Y11628D01*
X69904Y12085D01*
X69098Y12246D01*
X68291Y12085D01*
X67608Y11628D01*
X67151Y10945D01*
X66991Y10138D01*
X67151Y9332D01*
X67608Y8648D01*
X67495Y8160D01*
X66941Y7606D01*
X58751D01*
X51545Y14812D01*
X51555Y14862D01*
X51399Y15646D01*
X50955Y16310D01*
X50913Y16338D01*
Y40779D01*
X51413Y40986D01*
X54164Y38235D01*
X54685Y37887D01*
X55300Y37764D01*
X55300Y37764D01*
X74057D01*
X74057Y37764D01*
X74672Y37887D01*
X75192Y38235D01*
X76035Y39077D01*
X76371Y38955D01*
X76510Y38845D01*
Y25147D01*
X73881Y22517D01*
X73598Y22094D01*
X73498Y21595D01*
Y17514D01*
X72900Y16916D01*
X72617Y16493D01*
X72518Y15993D01*
Y11386D01*
X72375Y11291D01*
X71931Y10626D01*
X71775Y9843D01*
X71931Y9060D01*
X72375Y8395D01*
X73039Y7952D01*
X73822Y7796D01*
X74606Y7952D01*
X75270Y8395D01*
X75714Y9060D01*
X75870Y9843D01*
X75714Y10626D01*
X75270Y11291D01*
X75127Y11386D01*
Y15453D01*
X75726Y16051D01*
X76008Y16475D01*
X76108Y16974D01*
Y21054D01*
X78737Y23684D01*
X79020Y24107D01*
X79120Y24607D01*
Y38364D01*
X81241Y40486D01*
X81524Y40909D01*
X81623Y41409D01*
Y43952D01*
X81524Y44451D01*
X81241Y44875D01*
X79565Y46550D01*
X79142Y46833D01*
X78643Y46933D01*
X76181D01*
X75682Y46833D01*
X75259Y46550D01*
X71450Y42742D01*
X57141D01*
X52983Y46900D01*
X53185Y47404D01*
X55565Y47455D01*
X55638Y47088D01*
X56116Y46372D01*
X56832Y45893D01*
X57677Y45725D01*
X58522Y45893D01*
X59238Y46372D01*
X59717Y47088D01*
X59808Y47545D01*
X83169Y48041D01*
X85605Y55813D01*
X86099Y55738D01*
D02*
G37*
G36*
X2165Y40660D02*
X9646D01*
X9707Y40672D01*
X9953Y40212D01*
X6778Y37037D01*
X2165D01*
X1961Y36996D01*
X1575Y37313D01*
Y40384D01*
X1961Y40701D01*
X2165Y40660D01*
D02*
G37*
G36*
X86099Y61644D02*
Y56927D01*
X85737Y56616D01*
X85599Y56606D01*
X85533Y56613D01*
X85474Y56596D01*
X85413Y56593D01*
X85325Y56552D01*
X85233Y56525D01*
X85185Y56486D01*
X85129Y56460D01*
X85064Y56389D01*
X84989Y56328D01*
X84959Y56274D01*
X84918Y56229D01*
X84885Y56138D01*
X84838Y56053D01*
X83781Y52679D01*
X81201Y50098D01*
X79877Y48774D01*
X59802Y48348D01*
X59717Y48778D01*
X59317Y49376D01*
X59498Y49876D01*
X60787D01*
X61286Y49976D01*
X61423Y50068D01*
X62598D01*
X63213Y50190D01*
X63734Y50538D01*
X64082Y51059D01*
X64204Y51673D01*
Y53248D01*
X64082Y53863D01*
X63734Y54383D01*
X63213Y54732D01*
X62598Y54854D01*
X60870D01*
X60697Y55123D01*
X60852Y55363D01*
X61114D01*
Y57472D01*
X58643D01*
X58307Y57197D01*
X57972Y57264D01*
X57189Y57108D01*
X57047Y57013D01*
X55571D01*
X55094Y57071D01*
Y60819D01*
X49409D01*
Y61819D01*
X55094D01*
Y64567D01*
X56006D01*
Y64370D01*
X56874Y64039D01*
Y61205D01*
X62024D01*
Y62795D01*
X62598D01*
Y61417D01*
X67323D01*
Y62795D01*
X68075D01*
X68485Y62295D01*
X68429Y62011D01*
X68585Y61228D01*
X69028Y60563D01*
X69692Y60119D01*
X70476Y59964D01*
X71259Y60119D01*
X71924Y60563D01*
X72055Y60760D01*
X72284Y60806D01*
X72707Y61088D01*
X74414Y62795D01*
X74808D01*
Y63190D01*
X76186Y64567D01*
X83176D01*
X86099Y61644D01*
D02*
G37*
G36*
X105000Y56580D02*
X107182D01*
X107902Y56723D01*
X108402Y56391D01*
Y55463D01*
X108587Y54535D01*
X108965Y53969D01*
X108812Y53595D01*
X108709Y53462D01*
X108040Y53374D01*
X107370Y53096D01*
X106794Y52654D01*
X106353Y52079D01*
X106075Y51408D01*
X105980Y50689D01*
Y45177D01*
X106075Y44458D01*
X106353Y43787D01*
X106794Y43212D01*
X107370Y42770D01*
X108040Y42492D01*
X108760Y42397D01*
X112697D01*
X113416Y42492D01*
X114087Y42770D01*
X114657Y43208D01*
X114681Y43205D01*
X115157Y43036D01*
X115157Y13901D01*
X114657Y13655D01*
X114147Y14047D01*
X113305Y14395D01*
X113201Y14409D01*
X113107Y14554D01*
X113002Y14939D01*
X113225Y15273D01*
X113299Y15642D01*
X111221D01*
Y16642D01*
X113298D01*
X113225Y17011D01*
X112928Y17456D01*
X112796Y17544D01*
X112775Y18125D01*
X112788Y18150D01*
X113025Y18505D01*
X113113Y18947D01*
Y19636D01*
X113025Y20077D01*
X112848Y20341D01*
X112841Y20741D01*
X112894Y20973D01*
X112928Y20996D01*
X113225Y21441D01*
X113299Y21810D01*
X111221D01*
Y22810D01*
X113298D01*
X113225Y23179D01*
X112928Y23623D01*
X112796Y23712D01*
X112775Y24293D01*
X112788Y24318D01*
X113025Y24673D01*
X113113Y25115D01*
Y25804D01*
X113025Y26245D01*
X112848Y26509D01*
X112841Y26909D01*
X112894Y27141D01*
X112928Y27164D01*
X113225Y27609D01*
X113299Y27978D01*
X111220D01*
Y28978D01*
X113298D01*
X113225Y29347D01*
X112928Y29792D01*
X112796Y29880D01*
X112775Y30461D01*
X112788Y30487D01*
X113025Y30841D01*
X113113Y31283D01*
Y31972D01*
X113025Y32413D01*
X112848Y32677D01*
X112841Y33077D01*
X112894Y33309D01*
X112928Y33332D01*
X113225Y33777D01*
X113299Y34146D01*
X111221D01*
Y35146D01*
X113298D01*
X113225Y35515D01*
X112928Y35959D01*
X112796Y36048D01*
X112775Y36629D01*
X112788Y36654D01*
X113025Y37009D01*
X113113Y37451D01*
Y38140D01*
X113025Y38581D01*
X112775Y38956D01*
X112400Y39206D01*
X111959Y39294D01*
X110482D01*
X110041Y39206D01*
X109887Y39103D01*
X109090Y39901D01*
X108667Y40184D01*
X108253Y40266D01*
X108146Y40426D01*
X107482Y40870D01*
X106698Y41026D01*
X105915Y40870D01*
X105348Y40491D01*
X104998Y40606D01*
X104848Y40712D01*
Y45906D01*
X104954Y46064D01*
X105042Y46506D01*
Y47982D01*
X104954Y48424D01*
X104704Y48798D01*
X104329Y49049D01*
X103888Y49136D01*
X103199D01*
X102757Y49049D01*
X102402Y48812D01*
X102377Y48798D01*
X101796Y48820D01*
X101707Y48952D01*
X101263Y49249D01*
X100894Y49322D01*
Y47244D01*
X99894D01*
Y49409D01*
X99490Y49752D01*
X99416Y50122D01*
X99068Y50643D01*
X98904Y50753D01*
X98921Y51229D01*
X98973Y51250D01*
X99548Y51692D01*
X99970Y52241D01*
X100022Y52245D01*
X100470Y52027D01*
Y51230D01*
X100558Y50789D01*
X100808Y50414D01*
X101182Y50164D01*
X101624Y50076D01*
X102313D01*
X102755Y50164D01*
X103129Y50414D01*
X103379Y50789D01*
X103467Y51230D01*
Y52707D01*
X103379Y53148D01*
X103175Y53454D01*
Y54232D01*
X103075Y54732D01*
X102793Y55155D01*
X101867Y56080D01*
X102075Y56580D01*
X104000D01*
Y60532D01*
X105000D01*
Y56580D01*
D02*
G37*
G36*
X109134Y76962D02*
X109336Y76827D01*
Y76327D01*
X109051Y76136D01*
X108574Y75423D01*
X108407Y74582D01*
Y73925D01*
X112205D01*
Y72925D01*
X108407D01*
Y72269D01*
X108574Y71427D01*
X109051Y70714D01*
X109527Y70395D01*
X109549Y69809D01*
X109444Y69739D01*
X108968Y69025D01*
X108800Y68184D01*
Y67528D01*
X112401D01*
Y66528D01*
X108800D01*
Y65871D01*
X108968Y65030D01*
X109292Y64544D01*
X109192Y64036D01*
X108804Y63848D01*
X108139Y64293D01*
X107182Y64483D01*
X107138D01*
X106914Y64756D01*
X103122D01*
Y65756D01*
X106855D01*
X106755Y66262D01*
X106444Y66727D01*
X106555Y66892D01*
X106650Y67372D01*
Y68258D01*
X106555Y68738D01*
X106316Y69095D01*
X106555Y69451D01*
X106650Y69931D01*
Y70817D01*
X106555Y71297D01*
X106316Y71654D01*
X106555Y72010D01*
X106650Y72490D01*
Y73376D01*
X106555Y73856D01*
X106316Y74213D01*
X106555Y74569D01*
X106650Y75049D01*
Y75935D01*
X107083Y76323D01*
X107745Y76455D01*
X108556Y76997D01*
X108577Y77029D01*
X109000D01*
X109134Y76962D01*
D02*
G37*
G36*
X25981Y45719D02*
X26437Y45415D01*
X26975Y45308D01*
X33512D01*
X42018Y36802D01*
X42314Y36604D01*
X42370Y36109D01*
X42348Y36026D01*
X42157Y35898D01*
X41713Y35234D01*
X41578Y34553D01*
X40022Y32998D01*
X23658D01*
X23496Y33241D01*
X22832Y33684D01*
X22048Y33840D01*
X21265Y33684D01*
X20601Y33241D01*
X20157Y32576D01*
X20001Y31793D01*
X20157Y31010D01*
X20601Y30345D01*
X21265Y29901D01*
X22048Y29746D01*
X22832Y29901D01*
X22867Y29925D01*
X23153Y29982D01*
X23576Y30265D01*
X23700Y30388D01*
X40563D01*
X41062Y30488D01*
X41485Y30770D01*
X43199Y32484D01*
X43604Y32403D01*
X44388Y32559D01*
X45052Y33003D01*
X45243Y33288D01*
X45743Y33136D01*
Y30560D01*
X44799Y29616D01*
X44526Y29799D01*
X44027Y29898D01*
X43528Y29799D01*
X43105Y29516D01*
X43069Y29462D01*
X42579Y29135D01*
X42136Y28471D01*
X41980Y27688D01*
X42136Y26904D01*
X42579Y26240D01*
X43244Y25796D01*
X43555Y25734D01*
X43977Y25489D01*
X43821Y24706D01*
X43977Y23923D01*
X44421Y23258D01*
X45085Y22815D01*
X45257Y22780D01*
X45703Y22334D01*
Y13827D01*
X45803Y13327D01*
X46085Y12904D01*
X56915Y2075D01*
X56891Y1888D01*
X56741Y1575D01*
X1575D01*
X1575Y30384D01*
X1961Y30701D01*
X2165Y30660D01*
X9646D01*
X10296Y30790D01*
X10796Y30513D01*
Y29528D01*
X10039D01*
Y24409D01*
X10039Y24409D01*
X9957Y24106D01*
X9957Y24106D01*
X9957Y23944D01*
Y21227D01*
X9882Y21192D01*
X9382Y21509D01*
Y24197D01*
X9465D01*
Y26469D01*
X6890D01*
X4315D01*
Y24319D01*
X4232D01*
Y22047D01*
X6807D01*
Y21547D01*
X7307D01*
Y18776D01*
X7807D01*
X8029Y18505D01*
X8197Y17660D01*
X8676Y16944D01*
X9392Y16465D01*
X10237Y16297D01*
X11082Y16465D01*
X11798Y16944D01*
X12276Y17660D01*
X12444Y18505D01*
X12425Y18605D01*
X12764Y18988D01*
X14681D01*
Y24106D01*
X14681Y24106D01*
X14764Y24409D01*
X14764Y24409D01*
X14764Y24572D01*
Y29528D01*
X14007D01*
Y34423D01*
X14007Y34423D01*
X14678Y34701D01*
X15254Y35143D01*
X15695Y35718D01*
X15973Y36389D01*
X16068Y37108D01*
X15973Y37828D01*
X15695Y38498D01*
X15254Y39074D01*
X14678Y39515D01*
X14007Y39793D01*
X13950Y39801D01*
X13930Y40292D01*
X14429Y40391D01*
X14601Y40506D01*
X23203D01*
X25216Y38493D01*
X25156Y38191D01*
X25324Y37346D01*
X25802Y36630D01*
X26519Y36151D01*
X27363Y35983D01*
X28208Y36151D01*
X28925Y36630D01*
X29403Y37346D01*
X29571Y38191D01*
X29403Y39036D01*
X28925Y39752D01*
X28208Y40231D01*
X27363Y40399D01*
X27061Y40338D01*
X24666Y42733D01*
X24243Y43016D01*
X23743Y43116D01*
X23156D01*
X22921Y43557D01*
X22955Y43608D01*
X23111Y44392D01*
X22955Y45175D01*
X22512Y45840D01*
X21847Y46283D01*
X21064Y46439D01*
X20281Y46283D01*
X19616Y45840D01*
X19324Y45401D01*
X15670D01*
X15463Y45901D01*
X15841Y46280D01*
X16142Y46220D01*
X16987Y46388D01*
X17704Y46866D01*
X17824Y47047D01*
X24653D01*
X25981Y45719D01*
D02*
G37*
G36*
X108152Y86394D02*
X108523Y85893D01*
X108402Y85285D01*
Y84069D01*
X107961Y83833D01*
X107745Y83978D01*
X106788Y84168D01*
X104803D01*
Y80216D01*
X104303D01*
Y79716D01*
X99318D01*
Y78765D01*
X99468Y78011D01*
X99418Y77890D01*
X99184Y77564D01*
X99109Y77506D01*
X98491Y77384D01*
X97827Y76940D01*
X97523Y76486D01*
X96931Y76371D01*
X92556Y80745D01*
X92133Y81028D01*
X91634Y81127D01*
X89991D01*
Y81299D01*
X89869Y81914D01*
X89521Y82435D01*
X89000Y82783D01*
X88386Y82905D01*
X86811D01*
X86197Y82783D01*
X85676Y82435D01*
X85328Y81914D01*
X85205Y81299D01*
Y79445D01*
X85093Y79309D01*
X84923D01*
X84480Y79763D01*
Y81299D01*
X84357Y81914D01*
X84009Y82435D01*
X83489Y82783D01*
X82874Y82905D01*
X81299D01*
X80685Y82783D01*
X80164Y82435D01*
X79816Y81914D01*
X79694Y81299D01*
Y80365D01*
X78841Y79513D01*
X78423Y79233D01*
X78251Y79061D01*
X77968Y78638D01*
X77869Y78139D01*
Y77556D01*
X76898Y76586D01*
X76731Y76474D01*
X73627Y73370D01*
X73344Y72947D01*
X73245Y72448D01*
Y71673D01*
X72745Y71426D01*
X72455Y71649D01*
X71688Y71966D01*
X70866Y72074D01*
X70044Y71966D01*
X69278Y71649D01*
X68620Y71144D01*
X68348Y70789D01*
X67718Y70789D01*
X67555Y71000D01*
X66853Y71539D01*
X66035Y71878D01*
X65751Y71915D01*
X65748Y72414D01*
X66286Y72521D01*
X66742Y72825D01*
X67046Y73281D01*
X67153Y73819D01*
Y75000D01*
X67046Y75538D01*
X66742Y75993D01*
X66932Y76468D01*
X67246Y76938D01*
X67370Y77559D01*
Y77650D01*
X64272D01*
Y78650D01*
X67370D01*
Y78740D01*
X67246Y79361D01*
X67065Y79632D01*
X67365Y80082D01*
X67913Y79973D01*
X68268Y80044D01*
X68451Y79770D01*
X68972Y79422D01*
X69587Y79300D01*
X71555D01*
X72170Y79422D01*
X72690Y79770D01*
X73039Y80291D01*
X73161Y80905D01*
Y82480D01*
X73039Y83095D01*
X72690Y83616D01*
X72170Y83964D01*
X71555Y84086D01*
X69615D01*
X68835Y84607D01*
X67913Y84790D01*
X66992Y84607D01*
X66210Y84085D01*
X66038Y83828D01*
X65748Y83885D01*
X62795D01*
X62258Y83778D01*
X61834Y83495D01*
X60728D01*
X60728Y83495D01*
X60114Y83373D01*
X59593Y83025D01*
X59593Y83025D01*
X57329Y80761D01*
X56981Y80240D01*
X56887Y79765D01*
X56405Y79541D01*
X56138Y79658D01*
X56115Y80177D01*
X56308Y80306D01*
X56613Y80762D01*
X56720Y81299D01*
Y82480D01*
X56613Y83018D01*
X56308Y83474D01*
X56004Y83677D01*
Y86126D01*
X56358Y86479D01*
X108152Y86394D01*
D02*
G37*
G36*
X61345Y73487D02*
X61474Y73401D01*
X61497Y73281D01*
X61802Y72825D01*
X62258Y72521D01*
X62795Y72414D01*
X64520D01*
X64553Y71914D01*
X64280Y71878D01*
X63462Y71539D01*
X62760Y71000D01*
X62221Y70298D01*
X61882Y69480D01*
X61766Y68602D01*
X61705Y68533D01*
X58967D01*
X58700Y69033D01*
X58880Y69301D01*
X59035Y70085D01*
X58880Y70868D01*
X58436Y71532D01*
X57772Y71976D01*
X56988Y72132D01*
X56952Y72125D01*
X56400Y72522D01*
X56388Y72623D01*
X56462Y72672D01*
X56813Y73198D01*
X56937Y73819D01*
Y73909D01*
X53839D01*
Y74909D01*
X56937D01*
Y75000D01*
X56813Y75621D01*
X56725Y75753D01*
X56992Y76253D01*
X58110D01*
X58110Y76253D01*
X58502Y76330D01*
X61345Y73487D01*
D02*
G37*
%LPC*%
G36*
X35827Y80962D02*
X35244D01*
Y75303D01*
X37950D01*
Y78839D01*
X37789Y79651D01*
X37328Y80340D01*
X36639Y80800D01*
X35827Y80962D01*
D02*
G37*
G36*
X34244D02*
X33661D01*
X32849Y80800D01*
X32160Y80340D01*
X31700Y79651D01*
X31538Y78839D01*
Y75303D01*
X34244D01*
Y80962D01*
D02*
G37*
G36*
X36705Y65642D02*
X31046D01*
Y65059D01*
X31207Y64246D01*
X31668Y63557D01*
X32357Y63097D01*
X33169Y62936D01*
X36705D01*
Y65642D01*
D02*
G37*
G36*
X99716Y5865D02*
X98138D01*
Y4649D01*
X98376D01*
X98901Y4754D01*
X99345Y5051D01*
X99642Y5496D01*
X99716Y5865D01*
D02*
G37*
G36*
X64421Y57472D02*
X62114D01*
Y55363D01*
X62598D01*
X63296Y55501D01*
X63887Y55896D01*
X64282Y56488D01*
X64421Y57185D01*
Y57472D01*
D02*
G37*
G36*
X61114Y60582D02*
X60630D01*
X59933Y60444D01*
X59341Y60049D01*
X58946Y59457D01*
X58807Y58760D01*
Y58473D01*
X61114D01*
Y60582D01*
D02*
G37*
G36*
X62598D02*
X62114D01*
Y58473D01*
X64421D01*
Y58760D01*
X64282Y59457D01*
X63887Y60049D01*
X63296Y60444D01*
X62598Y60582D01*
D02*
G37*
G36*
X9465Y29740D02*
X7390D01*
Y27468D01*
X9465D01*
Y29740D01*
D02*
G37*
G36*
X6390D02*
X4315D01*
Y27468D01*
X6390D01*
Y29740D01*
D02*
G37*
G36*
X6307Y21047D02*
X4232D01*
Y18776D01*
X6307D01*
Y21047D01*
D02*
G37*
G36*
X70071Y78791D02*
X69587D01*
X68889Y78652D01*
X68298Y78257D01*
X67903Y77666D01*
X67764Y76968D01*
Y76681D01*
X70071D01*
Y78791D01*
D02*
G37*
G36*
X103803Y84168D02*
X101818D01*
X100861Y83978D01*
X100050Y83436D01*
X99508Y82625D01*
X99318Y81668D01*
Y80717D01*
X103803D01*
Y84168D01*
D02*
G37*
G36*
X71555Y78791D02*
X71071D01*
Y76681D01*
X73378D01*
Y76968D01*
X73239Y77666D01*
X72844Y78257D01*
X72253Y78652D01*
X71555Y78791D01*
D02*
G37*
G36*
X73378Y75681D02*
X71071D01*
Y73571D01*
X71555D01*
X72253Y73710D01*
X72844Y74105D01*
X73239Y74696D01*
X73378Y75394D01*
Y75681D01*
D02*
G37*
G36*
X70071D02*
X67764D01*
Y75394D01*
X67903Y74696D01*
X68298Y74105D01*
X68889Y73710D01*
X69587Y73571D01*
X70071D01*
Y75681D01*
D02*
G37*
%LPD*%
D10*
X59449Y63976D02*
D03*
X64961D02*
D03*
X6890Y26969D02*
D03*
X12402D02*
D03*
X6807Y21547D02*
D03*
X12319D02*
D03*
D11*
X91929Y58661D02*
D03*
X97441D02*
D03*
X97146Y48524D02*
D03*
X91634D02*
D03*
X91604Y38642D02*
D03*
X97116D02*
D03*
X91604Y28425D02*
D03*
X97116D02*
D03*
X92490Y19094D02*
D03*
X98002D02*
D03*
X92588Y13780D02*
D03*
X98100D02*
D03*
X82087Y69488D02*
D03*
X87598D02*
D03*
X54921Y51181D02*
D03*
X49409D02*
D03*
X82087Y80315D02*
D03*
X87598D02*
D03*
X82087Y73966D02*
D03*
X87598D02*
D03*
D17*
X111221Y37795D02*
D03*
Y34646D02*
D03*
X106496Y36220D02*
D03*
X111221Y31627D02*
D03*
Y28478D02*
D03*
X106496Y30053D02*
D03*
X111221Y25459D02*
D03*
Y22310D02*
D03*
X106496Y23885D02*
D03*
X111221Y19291D02*
D03*
Y16142D02*
D03*
X106496Y17717D02*
D03*
X97638Y9514D02*
D03*
Y6365D02*
D03*
X92913Y7940D02*
D03*
D22*
X61614Y52461D02*
D03*
Y57973D02*
D03*
X70571Y76181D02*
D03*
Y81693D02*
D03*
D24*
X103543Y47244D02*
D03*
X100394D02*
D03*
X101969Y51968D02*
D03*
D28*
X5906Y53848D02*
D03*
Y43848D02*
D03*
Y33848D02*
D03*
D32*
X12894Y44097D02*
X21064D01*
X18701Y63976D02*
Y79331D01*
Y63976D02*
X20079Y62598D01*
X27165Y55512D02*
X33661D01*
X20079Y62598D02*
X27165Y55512D01*
X95276Y7940D02*
X96850Y9514D01*
X97638D01*
X90004Y10849D02*
Y11764D01*
Y10849D02*
X92913Y7940D01*
X87504Y9969D02*
X91691Y5783D01*
X95276Y6922D02*
Y7940D01*
X94136Y5783D02*
X95276Y6922D01*
X91691Y5783D02*
X94136D01*
X97146Y48524D02*
X97583Y48961D01*
X86978Y14135D02*
X87885Y13229D01*
X88540D01*
X90004Y11764D01*
X74472Y56152D02*
X75937Y54688D01*
X74472Y56152D02*
Y57129D01*
X73333Y58268D02*
X74472Y57129D01*
X97638Y67815D02*
X103122D01*
X76321Y66547D02*
Y71695D01*
X74550Y67281D02*
Y72448D01*
X93095Y75630D02*
X98745Y69980D01*
X87785Y75630D02*
X93095D01*
X87598Y75443D02*
X87785Y75630D01*
X91634Y79823D02*
X96774Y74682D01*
Y74457D02*
Y74682D01*
X98298Y72933D02*
X103122D01*
X96774Y74457D02*
X98298Y72933D01*
X71785Y62011D02*
X76321Y66547D01*
X70476Y62011D02*
X71785D01*
X72130Y64862D02*
X74550Y67281D01*
X68701Y64862D02*
X72130D01*
X70571Y74016D02*
Y76181D01*
X71949Y58268D02*
X73333D01*
X52067Y63976D02*
X53347Y65256D01*
X49409Y61319D02*
X52067Y63976D01*
X59449D01*
X64961Y68405D02*
X65158Y68602D01*
X64961Y63976D02*
Y68405D01*
X49409Y61319D02*
X49409Y61319D01*
Y55709D02*
Y61319D01*
X53347Y65256D02*
Y66929D01*
X53617Y52486D02*
X54921Y51181D01*
X52800Y52486D02*
X53617D01*
X49409Y51181D02*
X49409Y51181D01*
X46909Y72000D02*
X47109Y71801D01*
Y69933D02*
Y71801D01*
Y69933D02*
X47441Y69600D01*
Y66929D02*
Y69600D01*
X54921Y51181D02*
X60787D01*
X61611Y52005D01*
X51378Y53907D02*
X52800Y52486D01*
X106698Y38978D02*
X108167D01*
X99034Y36906D02*
X100446Y35494D01*
X97501Y38438D02*
X99034Y36906D01*
X97298Y38642D02*
X97501Y38438D01*
X97116Y38642D02*
X97298D01*
X45868Y24013D02*
X47008Y22874D01*
Y13827D02*
Y22874D01*
X108167Y38978D02*
X109350Y37795D01*
X45868Y24013D02*
Y24706D01*
X100891Y41242D02*
Y41531D01*
X103543Y40359D02*
Y47244D01*
X101678Y17028D02*
X102428D01*
X105085Y19685D01*
X107907D01*
X108301Y19291D02*
X111221D01*
X107907Y19685D02*
X108301Y19291D01*
X106496Y16535D02*
Y17717D01*
X102953Y12992D02*
X106496Y16535D01*
X98002Y19094D02*
X102785Y23878D01*
X108660Y32974D02*
X110007Y31627D01*
X101580Y32974D02*
X108660D01*
X101181Y26772D02*
X102854D01*
X101481Y37994D02*
X102462D01*
X102517Y35494D02*
X103243Y36220D01*
X100446Y35494D02*
X102517D01*
X102462Y39278D02*
X103543Y40359D01*
X103243Y36220D02*
X106496D01*
X100689Y41733D02*
X100891Y41531D01*
X98743Y30053D02*
X106496D01*
X102854Y26772D02*
X103773Y25853D01*
X86978Y22278D02*
X86978Y22278D01*
X88750Y23012D02*
Y31476D01*
Y23012D02*
X88750Y23012D01*
X68602Y78150D02*
X70571Y76181D01*
X64272Y78150D02*
X68602D01*
X51378Y53907D02*
Y55709D01*
X41240Y55512D02*
X43406Y53347D01*
X46850D01*
X47441Y53937D01*
Y55709D01*
X37205Y55512D02*
X37402Y55709D01*
X45472D01*
X45374Y74803D02*
X45472Y74705D01*
Y66929D02*
Y74705D01*
X58268Y18994D02*
X58369Y19095D01*
X109482Y25459D02*
X111221D01*
X109088Y25853D02*
X109482Y25459D01*
X103773Y25853D02*
X109088D01*
X109350Y37795D02*
X111221D01*
X100831Y41875D02*
Y45079D01*
X100394Y45516D02*
Y47244D01*
Y45516D02*
X100831Y45079D01*
X100689Y41733D02*
X100831Y41875D01*
X102785Y23878D02*
X106490D01*
X106496Y23885D01*
X101870Y52067D02*
X101969Y51968D01*
X101870Y52067D02*
Y54232D01*
X97441Y58661D02*
X101870Y54232D01*
X91929Y58661D02*
X92246Y58345D01*
Y53657D02*
Y58345D01*
X97116Y18209D02*
X98002Y19094D01*
X91604Y18209D02*
X92134D01*
X97583Y48961D02*
Y53657D01*
X109941Y7579D02*
X111221Y8858D01*
X110007Y31627D02*
X111221D01*
X91604Y38642D02*
X91960D01*
X95494Y42176D01*
Y42532D01*
X96620Y43657D01*
X97583D01*
X91960Y28425D02*
X97192Y33658D01*
X91604Y28425D02*
X91960D01*
X97192Y33658D02*
X97583D01*
X90931D02*
X92246D01*
X88750Y31476D02*
X90931Y33658D01*
X97409Y23658D02*
X97583D01*
X94261Y20510D02*
X97409Y23658D01*
X94261Y20336D02*
Y20510D01*
X97116Y28425D02*
X98743Y30053D01*
X80949Y79776D02*
Y79823D01*
X76321Y71695D02*
X78405Y73779D01*
X78443D01*
X80106Y75443D01*
X74550Y72448D02*
X77653Y75551D01*
X77709D01*
X22048Y31793D02*
X22654Y31187D01*
X22654D01*
X5906Y33848D02*
Y34319D01*
X13930Y41597D02*
X14144Y41811D01*
X5906Y34319D02*
X13183Y41597D01*
X13930D01*
X5906Y43848D02*
X10394D01*
Y45132D02*
X11859Y46597D01*
X14313D01*
X16142Y48426D01*
Y48428D01*
X23743Y41811D02*
X27363Y38191D01*
X14144Y41811D02*
X23743D01*
X43320Y34451D02*
X43604D01*
X23160Y31693D02*
X40563D01*
X43320Y34451D01*
X46215Y46358D02*
X51679D01*
X33661Y55512D02*
X37205D01*
X51679Y46358D02*
X56600Y41437D01*
X43752Y48329D02*
X44244D01*
X46215Y46358D01*
X30512Y52362D02*
X33661Y55512D01*
X28602Y49862D02*
X31547D01*
X33752Y52067D01*
X28051Y49311D02*
X28602Y49862D01*
X47008Y13827D02*
X57882Y2953D01*
X79134D01*
X80315Y4134D01*
X89763Y45768D02*
Y46652D01*
X91634Y48524D01*
X95965Y69488D02*
X97638Y67815D01*
X87598Y69488D02*
X95965D01*
X79484Y78311D02*
X80949Y79776D01*
X77709Y75551D02*
X79173Y77016D01*
Y78139D01*
X79346Y78311D01*
X79484D01*
X47047Y30020D02*
Y42913D01*
X44715Y27688D02*
X47047Y30020D01*
X44027Y27688D02*
Y28594D01*
Y27688D02*
X44715D01*
X80106Y75443D02*
X82087D01*
X87598Y79823D02*
X91634D01*
X98745Y69980D02*
X103122D01*
X22654Y31187D02*
X23160Y31693D01*
X49409Y66929D02*
Y68701D01*
Y70769D01*
X57480Y55709D02*
X57972Y55216D01*
X53347Y55709D02*
X57480D01*
X37205Y55512D02*
X39075D01*
X33752Y52067D02*
X40014D01*
X43752Y48329D01*
X41978Y45522D02*
X44439D01*
X47047Y42913D01*
X38583Y48917D02*
X41978Y45522D01*
X87279Y9744D02*
X87504Y9969D01*
X87008Y9744D02*
X87279D01*
X86978Y14135D02*
Y15332D01*
X86978Y15332D01*
X102462Y37994D02*
Y39278D01*
X90127Y14469D02*
X92588D01*
X97116Y12992D02*
X102953D01*
X92134Y18209D02*
X94261Y20336D01*
X80949Y79823D02*
X82087D01*
X58465Y78212D02*
X62267Y74410D01*
X64272D01*
X49409Y70769D02*
X49609Y70968D01*
X71990Y41437D02*
X76181Y45628D01*
X56600Y41437D02*
X71990D01*
X76181Y45628D02*
X78643D01*
X80319Y43952D01*
Y41409D02*
Y43952D01*
X88750Y15846D02*
X90127Y14469D01*
X88750Y15846D02*
Y23012D01*
X86978Y15332D02*
Y22278D01*
X86978Y22278D02*
Y32210D01*
X88750Y33982D01*
Y44755D01*
X89763Y45768D01*
X77815Y38905D02*
X80319Y41409D01*
X77815Y24607D02*
Y38905D01*
X74803Y21595D02*
X77815Y24607D01*
X74803Y16974D02*
Y21595D01*
X50889Y70181D02*
X56988D01*
X49409Y68701D02*
X50889Y70181D01*
X49409Y51181D02*
Y55709D01*
X73822Y9843D02*
Y15993D01*
X74803Y16974D01*
X10394Y43848D02*
Y45132D01*
X58268Y18994D02*
X58467Y18794D01*
X65158Y68602D02*
X70571Y74016D01*
X111221Y8858D02*
Y16142D01*
D33*
X10237Y18505D02*
X12319Y20587D01*
Y21547D01*
X49508Y14862D02*
Y42322D01*
X50593Y43408D01*
X9744Y63943D02*
Y80512D01*
X43012Y37795D02*
X44390D01*
X9744Y63943D02*
X26975Y46713D01*
X34095D01*
X43012Y37795D01*
X47441Y83071D02*
X52658D01*
X53839Y81890D01*
X49508Y14862D02*
X58169Y6201D01*
X67523D01*
X69098Y7776D02*
Y10138D01*
X67523Y6201D02*
X69098Y7776D01*
D34*
X84842Y66831D02*
X84941D01*
X84842Y69615D02*
Y76961D01*
X84941Y66831D02*
X88878Y62894D01*
X84842Y66831D02*
Y69557D01*
X83730Y21418D02*
Y33556D01*
X85502Y46985D02*
X86458Y47941D01*
X86458D01*
X87303Y48786D01*
Y62143D01*
X88878Y50323D02*
X88878Y50323D01*
X88878Y48134D02*
Y50323D01*
X88878Y50323D02*
Y62894D01*
X82087Y67360D02*
X87303Y62143D01*
X82087Y67360D02*
Y69488D01*
X87076Y46332D02*
X88878Y48134D01*
X80512Y12107D02*
X85305Y16899D01*
X79039Y12107D02*
X80512D01*
X81240Y18928D02*
X83730Y21418D01*
X85305Y16899D02*
Y32903D01*
X87076Y34675D01*
Y46332D01*
X83730Y33556D02*
X85502Y35327D01*
Y46985D01*
D35*
X59449Y60138D02*
Y63976D01*
Y60138D02*
X61614Y57973D01*
X61910Y58268D01*
X108587Y55527D02*
X111820Y58760D01*
X112205D01*
X12319Y26886D02*
X12402Y26969D01*
X12319Y21547D02*
Y26886D01*
X12402Y26969D02*
Y36220D01*
X58465Y78212D02*
Y79626D01*
X58110Y77858D02*
X58465Y78212D01*
Y79626D02*
X60728Y81890D01*
X64272D01*
X45374Y74803D02*
X48429Y77858D01*
X50987D01*
X112205Y58760D02*
Y66831D01*
X112402Y67028D01*
X110630Y65256D02*
X112205Y66831D01*
X103122Y65256D02*
X110630D01*
X110433Y60532D02*
X112205Y58760D01*
X104500Y60532D02*
X110433D01*
X104303Y80216D02*
X110433D01*
X64272Y81890D02*
X67421D01*
X67913Y82382D01*
X55300Y39370D02*
X74057D01*
X50987Y77858D02*
X58110D01*
X61910Y58268D02*
X71949D01*
X74057Y39370D02*
X77461Y42774D01*
X50674Y43996D02*
X55300Y39370D01*
X50591Y43996D02*
X50674D01*
X108587Y54535D02*
Y55527D01*
X112205Y73425D02*
Y81988D01*
Y66831D02*
Y73425D01*
X110433Y80216D02*
X112205Y81988D01*
D36*
X83823Y45448D02*
X83828Y45453D01*
X65850Y9449D02*
X66440Y8859D01*
X83823Y39432D02*
Y45448D01*
D37*
X5906Y53848D02*
X16132D01*
X25492Y44488D01*
X53839Y74410D02*
X58109D01*
X63916Y68602D02*
X65158D01*
X58109Y74410D02*
X63916Y68602D01*
D38*
X57677Y47933D02*
D03*
X43504Y41437D02*
D03*
X10237Y18505D02*
D03*
X16142Y48428D02*
D03*
X27363Y38191D02*
D03*
D39*
X70866Y68898D02*
D03*
X65158Y68602D02*
D03*
D40*
X92246Y63657D02*
D03*
Y53657D02*
D03*
Y43657D02*
D03*
Y33658D02*
D03*
Y23658D02*
D03*
X97583D02*
D03*
Y63657D02*
D03*
Y33658D02*
D03*
Y53657D02*
D03*
Y43657D02*
D03*
X13288Y37108D02*
D03*
D41*
X97047Y3150D02*
D03*
X99274Y75492D02*
D03*
X70476Y62011D02*
D03*
X58467Y9843D02*
D03*
X68701Y64862D02*
D03*
X106698Y38978D02*
D03*
X20079Y62598D02*
D03*
X29429Y34646D02*
D03*
X111622Y80209D02*
D03*
X70866Y21457D02*
D03*
X57087Y34449D02*
D03*
X72244Y35236D02*
D03*
X113583Y23327D02*
D03*
X113779Y17421D02*
D03*
X112598Y11024D02*
D03*
X49409Y4134D02*
D03*
X42618Y19291D02*
D03*
X19882Y18406D02*
D03*
X41043Y7972D02*
D03*
X10039Y4331D02*
D03*
X27461Y17126D02*
D03*
X33071Y23425D02*
D03*
X32579Y14075D02*
D03*
X17323Y23130D02*
D03*
X45868Y24706D02*
D03*
X110728Y44685D02*
D03*
X100891Y41242D02*
D03*
X101678Y17028D02*
D03*
X101181Y26772D02*
D03*
X101481Y37994D02*
D03*
X101580Y32974D02*
D03*
X9744Y80512D02*
D03*
X49508Y14862D02*
D03*
X32776Y74016D02*
D03*
X18701Y79331D02*
D03*
X58369Y19095D02*
D03*
X111417Y85039D02*
D03*
X113091Y55709D02*
D03*
X113681Y3150D02*
D03*
X102264Y3051D02*
D03*
X92323D02*
D03*
X84842Y76961D02*
D03*
X22048Y31793D02*
D03*
X21064Y44392D02*
D03*
X12894Y44097D02*
D03*
X9960Y12481D02*
D03*
X44390Y37795D02*
D03*
X43604Y34451D02*
D03*
X30512Y52362D02*
D03*
X28051Y49311D02*
D03*
X25295Y34547D02*
D03*
X80315Y4134D02*
D03*
X65850Y9449D02*
D03*
X84646Y3839D02*
D03*
X101476Y78839D02*
D03*
X44027Y27688D02*
D03*
X57972Y55216D02*
D03*
X87008Y9744D02*
D03*
X56988Y70085D02*
D03*
X49609Y70968D02*
D03*
X79039Y12107D02*
D03*
X81240Y18928D02*
D03*
X73822Y9843D02*
D03*
D42*
X22539Y85335D02*
D03*
X34843Y85236D02*
D03*
X2461Y85138D02*
D03*
X108882Y55125D02*
D03*
X113583Y41240D02*
D03*
X71949Y85433D02*
D03*
X68110Y72736D02*
D03*
D43*
X50987Y77858D02*
D03*
X67913Y82382D02*
D03*
X50593Y43408D02*
D03*
X77461Y42774D02*
D03*
X47441Y83071D02*
D03*
D44*
X38583Y48917D02*
D03*
X69098Y10138D02*
D03*
D45*
X49409Y61319D02*
D03*
D46*
X45472Y55709D02*
D03*
X47441D02*
D03*
X49409D02*
D03*
X51378D02*
D03*
X53347D02*
D03*
Y66929D02*
D03*
X51378D02*
D03*
X49409D02*
D03*
X47441D02*
D03*
X45472D02*
D03*
D47*
X34744Y74803D02*
D03*
X45374D02*
D03*
D48*
X37205Y66142D02*
D03*
Y55512D02*
D03*
D49*
X64272Y81890D02*
D03*
Y78150D02*
D03*
Y74410D02*
D03*
X53839D02*
D03*
Y81890D02*
D03*
D50*
X112205Y58760D02*
D03*
Y81988D02*
D03*
D51*
Y73425D02*
D03*
D52*
X112402Y67028D02*
D03*
D53*
X104303Y80216D02*
D03*
D54*
X104500Y60532D02*
D03*
D55*
X103122Y75492D02*
D03*
Y65256D02*
D03*
Y67815D02*
D03*
Y72933D02*
D03*
Y70374D02*
D03*
D56*
X110728Y47933D02*
D03*
D57*
X109941Y7579D02*
D03*
D58*
X34744Y68602D02*
Y74803D01*
Y68602D02*
X37205Y66142D01*
X42028Y61319D01*
X49409D01*
D59*
X78543Y20045D02*
X81555Y23057D01*
Y36113D02*
X83632Y38189D01*
X81555Y23057D02*
Y36113D01*
X83632Y38189D02*
Y39432D01*
X76322Y13204D02*
X78543Y15425D01*
Y20045D01*
M02*
