G04 Layer_Color=8388736*
%FSLAX25Y25*%
%MOIN*%
G70*
G01*
G75*
%ADD43C,0.03150*%
%ADD64R,0.03543X0.03937*%
G04:AMPARAMS|DCode=65|XSize=39.37mil|YSize=35.43mil|CornerRadius=9.84mil|HoleSize=0mil|Usage=FLASHONLY|Rotation=90.000|XOffset=0mil|YOffset=0mil|HoleType=Round|Shape=RoundedRectangle|*
%AMROUNDEDRECTD65*
21,1,0.03937,0.01575,0,0,90.0*
21,1,0.01969,0.03543,0,0,90.0*
1,1,0.01969,0.00787,0.00984*
1,1,0.01969,0.00787,-0.00984*
1,1,0.01969,-0.00787,-0.00984*
1,1,0.01969,-0.00787,0.00984*
%
%ADD65ROUNDEDRECTD65*%
%ADD66R,0.03937X0.03543*%
G04:AMPARAMS|DCode=67|XSize=23.62mil|YSize=27.56mil|CornerRadius=6.89mil|HoleSize=0mil|Usage=FLASHONLY|Rotation=90.000|XOffset=0mil|YOffset=0mil|HoleType=Round|Shape=RoundedRectangle|*
%AMROUNDEDRECTD67*
21,1,0.02362,0.01378,0,0,90.0*
21,1,0.00984,0.02756,0,0,90.0*
1,1,0.01378,0.00689,0.00492*
1,1,0.01378,0.00689,-0.00492*
1,1,0.01378,-0.00689,-0.00492*
1,1,0.01378,-0.00689,0.00492*
%
%ADD67ROUNDEDRECTD67*%
G04:AMPARAMS|DCode=68|XSize=39.37mil|YSize=31.5mil|CornerRadius=8.86mil|HoleSize=0mil|Usage=FLASHONLY|Rotation=90.000|XOffset=0mil|YOffset=0mil|HoleType=Round|Shape=RoundedRectangle|*
%AMROUNDEDRECTD68*
21,1,0.03937,0.01378,0,0,90.0*
21,1,0.02165,0.03150,0,0,90.0*
1,1,0.01772,0.00689,0.01083*
1,1,0.01772,0.00689,-0.01083*
1,1,0.01772,-0.00689,-0.01083*
1,1,0.01772,-0.00689,0.01083*
%
%ADD68ROUNDEDRECTD68*%
G04:AMPARAMS|DCode=69|XSize=29.53mil|YSize=47.24mil|CornerRadius=8.37mil|HoleSize=0mil|Usage=FLASHONLY|Rotation=90.000|XOffset=0mil|YOffset=0mil|HoleType=Round|Shape=RoundedRectangle|*
%AMROUNDEDRECTD69*
21,1,0.02953,0.03051,0,0,90.0*
21,1,0.01280,0.04724,0,0,90.0*
1,1,0.01673,0.01526,0.00640*
1,1,0.01673,0.01526,-0.00640*
1,1,0.01673,-0.01526,-0.00640*
1,1,0.01673,-0.01526,0.00640*
%
%ADD69ROUNDEDRECTD69*%
G04:AMPARAMS|DCode=70|XSize=48.94mil|YSize=48.94mil|CornerRadius=13.22mil|HoleSize=0mil|Usage=FLASHONLY|Rotation=90.000|XOffset=0mil|YOffset=0mil|HoleType=Round|Shape=RoundedRectangle|*
%AMROUNDEDRECTD70*
21,1,0.04894,0.02250,0,0,90.0*
21,1,0.02250,0.04894,0,0,90.0*
1,1,0.02644,0.01125,0.01125*
1,1,0.02644,0.01125,-0.01125*
1,1,0.02644,-0.01125,-0.01125*
1,1,0.02644,-0.01125,0.01125*
%
%ADD70ROUNDEDRECTD70*%
G04:AMPARAMS|DCode=71|XSize=17.72mil|YSize=25.59mil|CornerRadius=5.41mil|HoleSize=0mil|Usage=FLASHONLY|Rotation=270.000|XOffset=0mil|YOffset=0mil|HoleType=Round|Shape=RoundedRectangle|*
%AMROUNDEDRECTD71*
21,1,0.01772,0.01476,0,0,270.0*
21,1,0.00689,0.02559,0,0,270.0*
1,1,0.01083,-0.00738,-0.00345*
1,1,0.01083,-0.00738,0.00345*
1,1,0.01083,0.00738,0.00345*
1,1,0.01083,0.00738,-0.00345*
%
%ADD71ROUNDEDRECTD71*%
G04:AMPARAMS|DCode=72|XSize=23.62mil|YSize=27.56mil|CornerRadius=6.89mil|HoleSize=0mil|Usage=FLASHONLY|Rotation=0.000|XOffset=0mil|YOffset=0mil|HoleType=Round|Shape=RoundedRectangle|*
%AMROUNDEDRECTD72*
21,1,0.02362,0.01378,0,0,0.0*
21,1,0.00984,0.02756,0,0,0.0*
1,1,0.01378,0.00492,-0.00689*
1,1,0.01378,-0.00492,-0.00689*
1,1,0.01378,-0.00492,0.00689*
1,1,0.01378,0.00492,0.00689*
%
%ADD72ROUNDEDRECTD72*%
%ADD73O,0.01378X0.03740*%
%ADD74O,0.03740X0.01378*%
%ADD75R,0.22441X0.22441*%
G04:AMPARAMS|DCode=76|XSize=39.37mil|YSize=35.43mil|CornerRadius=9.84mil|HoleSize=0mil|Usage=FLASHONLY|Rotation=0.000|XOffset=0mil|YOffset=0mil|HoleType=Round|Shape=RoundedRectangle|*
%AMROUNDEDRECTD76*
21,1,0.03937,0.01575,0,0,0.0*
21,1,0.01969,0.03543,0,0,0.0*
1,1,0.01969,0.00984,-0.00787*
1,1,0.01969,-0.00984,-0.00787*
1,1,0.01969,-0.00984,0.00787*
1,1,0.01969,0.00984,0.00787*
%
%ADD76ROUNDEDRECTD76*%
G04:AMPARAMS|DCode=77|XSize=39.37mil|YSize=35.43mil|CornerRadius=0mil|HoleSize=0mil|Usage=FLASHONLY|Rotation=90.000|XOffset=0mil|YOffset=0mil|HoleType=Round|Shape=Octagon|*
%AMOCTAGOND77*
4,1,8,0.00886,0.01969,-0.00886,0.01969,-0.01772,0.01083,-0.01772,-0.01083,-0.00886,-0.01969,0.00886,-0.01969,0.01772,-0.01083,0.01772,0.01083,0.00886,0.01969,0.0*
%
%ADD77OCTAGOND77*%

G04:AMPARAMS|DCode=78|XSize=17.72mil|YSize=25.59mil|CornerRadius=5.41mil|HoleSize=0mil|Usage=FLASHONLY|Rotation=180.000|XOffset=0mil|YOffset=0mil|HoleType=Round|Shape=RoundedRectangle|*
%AMROUNDEDRECTD78*
21,1,0.01772,0.01476,0,0,180.0*
21,1,0.00689,0.02559,0,0,180.0*
1,1,0.01083,-0.00345,0.00738*
1,1,0.01083,0.00345,0.00738*
1,1,0.01083,0.00345,-0.00738*
1,1,0.01083,-0.00345,-0.00738*
%
%ADD78ROUNDEDRECTD78*%
G04:AMPARAMS|DCode=79|XSize=17.72mil|YSize=25.59mil|CornerRadius=0mil|HoleSize=0mil|Usage=FLASHONLY|Rotation=180.000|XOffset=0mil|YOffset=0mil|HoleType=Round|Shape=Octagon|*
%AMOCTAGOND79*
4,1,8,0.00443,-0.01280,-0.00443,-0.01280,-0.00886,-0.00837,-0.00886,0.00837,-0.00443,0.01280,0.00443,0.01280,0.00886,0.00837,0.00886,-0.00837,0.00443,-0.01280,0.0*
%
%ADD79OCTAGOND79*%

G04:AMPARAMS|DCode=80|XSize=19.69mil|YSize=78.74mil|CornerRadius=5.91mil|HoleSize=0mil|Usage=FLASHONLY|Rotation=180.000|XOffset=0mil|YOffset=0mil|HoleType=Round|Shape=RoundedRectangle|*
%AMROUNDEDRECTD80*
21,1,0.01969,0.06693,0,0,180.0*
21,1,0.00787,0.07874,0,0,180.0*
1,1,0.01181,-0.00394,0.03347*
1,1,0.01181,0.00394,0.03347*
1,1,0.01181,0.00394,-0.03347*
1,1,0.01181,-0.00394,-0.03347*
%
%ADD80ROUNDEDRECTD80*%
G04:AMPARAMS|DCode=81|XSize=62.99mil|YSize=62.99mil|CornerRadius=16.73mil|HoleSize=0mil|Usage=FLASHONLY|Rotation=180.000|XOffset=0mil|YOffset=0mil|HoleType=Round|Shape=RoundedRectangle|*
%AMROUNDEDRECTD81*
21,1,0.06299,0.02953,0,0,180.0*
21,1,0.02953,0.06299,0,0,180.0*
1,1,0.03347,-0.01476,0.01476*
1,1,0.03347,0.01476,0.01476*
1,1,0.03347,0.01476,-0.01476*
1,1,0.03347,-0.01476,-0.01476*
%
%ADD81ROUNDEDRECTD81*%
G04:AMPARAMS|DCode=82|XSize=102.36mil|YSize=51.18mil|CornerRadius=13.78mil|HoleSize=0mil|Usage=FLASHONLY|Rotation=180.000|XOffset=0mil|YOffset=0mil|HoleType=Round|Shape=RoundedRectangle|*
%AMROUNDEDRECTD82*
21,1,0.10236,0.02362,0,0,180.0*
21,1,0.07480,0.05118,0,0,180.0*
1,1,0.02756,-0.03740,0.01181*
1,1,0.02756,0.03740,0.01181*
1,1,0.02756,0.03740,-0.01181*
1,1,0.02756,-0.03740,-0.01181*
%
%ADD82ROUNDEDRECTD82*%
G04:AMPARAMS|DCode=83|XSize=122.05mil|YSize=82.68mil|CornerRadius=21.65mil|HoleSize=0mil|Usage=FLASHONLY|Rotation=270.000|XOffset=0mil|YOffset=0mil|HoleType=Round|Shape=RoundedRectangle|*
%AMROUNDEDRECTD83*
21,1,0.12205,0.03937,0,0,270.0*
21,1,0.07874,0.08268,0,0,270.0*
1,1,0.04331,-0.01969,-0.03937*
1,1,0.04331,-0.01969,0.03937*
1,1,0.04331,0.01969,0.03937*
1,1,0.04331,0.01969,-0.03937*
%
%ADD83ROUNDEDRECTD83*%
%ADD84R,0.08268X0.12205*%
%ADD85R,0.02559X0.04724*%
%ADD86C,0.05118*%
%ADD87C,0.04331*%
D43*
X57677Y47933D02*
D03*
X43504Y41437D02*
D03*
D64*
X93012Y48524D02*
D03*
X37787Y5307D02*
D03*
X32276D02*
D03*
D65*
X98524Y48524D02*
D03*
X66929Y47933D02*
D03*
X72441D02*
D03*
X97342Y58957D02*
D03*
X21752Y68504D02*
D03*
X27264D02*
D03*
X21752Y63583D02*
D03*
X27264D02*
D03*
X4528Y67716D02*
D03*
X10039D02*
D03*
X4528Y62598D02*
D03*
X10039D02*
D03*
X27264Y58661D02*
D03*
X21752D02*
D03*
D66*
X44783Y10728D02*
D03*
Y5217D02*
D03*
X33206Y57936D02*
D03*
Y63448D02*
D03*
D67*
X97264Y71850D02*
D03*
X101555D02*
D03*
X50217Y55216D02*
D03*
X54508D02*
D03*
X70846Y7677D02*
D03*
X66555D02*
D03*
X70945Y4528D02*
D03*
X66654D02*
D03*
D68*
X82579Y82579D02*
D03*
X88484D02*
D03*
D69*
X80610Y77165D02*
D03*
Y73425D02*
D03*
Y69685D02*
D03*
X90059D02*
D03*
Y77165D02*
D03*
X5217Y81201D02*
D03*
Y77461D02*
D03*
Y73721D02*
D03*
X14665D02*
D03*
Y81201D02*
D03*
D70*
X14724Y6201D02*
D03*
X4724D02*
D03*
D71*
X26280Y4528D02*
D03*
Y7677D02*
D03*
X21555Y6102D02*
D03*
X86910Y40256D02*
D03*
Y37106D02*
D03*
X91634Y38681D02*
D03*
X86417Y31594D02*
D03*
Y28445D02*
D03*
X91142Y30020D02*
D03*
D72*
X45768Y15374D02*
D03*
Y19665D02*
D03*
X50394Y46772D02*
D03*
Y51063D02*
D03*
X81398Y47126D02*
D03*
Y42835D02*
D03*
D73*
X52953Y15354D02*
D03*
X54921D02*
D03*
X56890D02*
D03*
X58858D02*
D03*
X60827D02*
D03*
X62795D02*
D03*
X64764D02*
D03*
X66732D02*
D03*
X68701D02*
D03*
X70669D02*
D03*
X72638D02*
D03*
X74606D02*
D03*
Y42913D02*
D03*
X72638D02*
D03*
X70669D02*
D03*
X68701D02*
D03*
X66732D02*
D03*
X64764D02*
D03*
X62795D02*
D03*
X60827D02*
D03*
X58858D02*
D03*
X56890D02*
D03*
X54921D02*
D03*
X52953D02*
D03*
D74*
X77559Y18307D02*
D03*
Y20276D02*
D03*
Y22244D02*
D03*
Y24213D02*
D03*
Y26181D02*
D03*
Y28150D02*
D03*
Y30118D02*
D03*
Y32087D02*
D03*
Y34055D02*
D03*
Y36024D02*
D03*
Y37992D02*
D03*
Y39961D02*
D03*
X50000D02*
D03*
Y37992D02*
D03*
Y36024D02*
D03*
Y34055D02*
D03*
Y32087D02*
D03*
Y30118D02*
D03*
Y28150D02*
D03*
Y26181D02*
D03*
Y24213D02*
D03*
Y22244D02*
D03*
Y20276D02*
D03*
Y18307D02*
D03*
D75*
X63779Y29134D02*
D03*
D76*
X80905Y63976D02*
D03*
Y58465D02*
D03*
X21752Y79527D02*
D03*
Y74016D02*
D03*
X26870Y79527D02*
D03*
Y74016D02*
D03*
X15059Y62402D02*
D03*
Y67913D02*
D03*
D77*
X91831Y58957D02*
D03*
D78*
X101575Y51279D02*
D03*
X104724D02*
D03*
X103150Y56004D02*
D03*
X89075Y46555D02*
D03*
X87500Y51279D02*
D03*
D79*
X85925Y46555D02*
D03*
D80*
X62992Y7382D02*
D03*
X58268D02*
D03*
X53543D02*
D03*
D81*
X14961Y36713D02*
D03*
X38583D02*
D03*
X14961Y13091D02*
D03*
X38583D02*
D03*
D82*
X5906Y53848D02*
D03*
Y43848D02*
D03*
Y33848D02*
D03*
D83*
X110925Y6890D02*
D03*
D84*
Y80512D02*
D03*
D85*
X6201Y18150D02*
D03*
X2461Y26850D02*
D03*
X9941Y27047D02*
D03*
D86*
X70866Y68898D02*
D03*
X65158Y68602D02*
D03*
D87*
X92246Y63657D02*
D03*
Y53657D02*
D03*
Y43657D02*
D03*
Y33658D02*
D03*
Y23658D02*
D03*
X97583D02*
D03*
Y63657D02*
D03*
Y33658D02*
D03*
Y53657D02*
D03*
Y43657D02*
D03*
M02*
