G04 Layer_Physical_Order=1*
G04 Layer_Color=255*
%FSLAX25Y25*%
%MOIN*%
G70*
G01*
G75*
G04:AMPARAMS|DCode=10|XSize=118.11mil|YSize=39.37mil|CornerRadius=9.84mil|HoleSize=0mil|Usage=FLASHONLY|Rotation=0.000|XOffset=0mil|YOffset=0mil|HoleType=Round|Shape=RoundedRectangle|*
%AMROUNDEDRECTD10*
21,1,0.11811,0.01969,0,0,0.0*
21,1,0.09843,0.03937,0,0,0.0*
1,1,0.01969,0.04921,-0.00984*
1,1,0.01969,-0.04921,-0.00984*
1,1,0.01969,-0.04921,0.00984*
1,1,0.01969,0.04921,0.00984*
%
%ADD10ROUNDEDRECTD10*%
%ADD11C,0.01575*%
%ADD12C,0.03150*%
%ADD13C,0.03937*%
G36*
X8376Y48719D02*
X11701Y47982D01*
X20739Y44807D01*
X24489Y42855D01*
X25166Y42423D01*
X35534Y34114D01*
X37491Y31978D01*
X43994Y22029D01*
X44548Y20964D01*
X46197Y16984D01*
X47442Y13036D01*
X48998Y4125D01*
X49174Y98D01*
X49161Y-205D01*
X47724Y-11634D01*
X47492Y-12680D01*
X46197Y-16788D01*
X45547Y-18357D01*
X42374Y-24879D01*
X40246Y-28220D01*
X37624Y-31637D01*
X35576Y-33871D01*
X33561Y-35868D01*
X31538Y-37722D01*
X28121Y-40344D01*
X25886Y-41768D01*
X13702Y-47237D01*
X12581Y-47590D01*
X9639Y-48243D01*
X-4896Y-49033D01*
X-7796Y-48651D01*
X-23031Y-43602D01*
X-38878Y-30512D01*
X-48130Y-10335D01*
X-49484Y2021D01*
X-49380Y4401D01*
X-49147Y6171D01*
X-45867Y18730D01*
X-45375Y19917D01*
X-35630Y34154D01*
X-22343Y43898D01*
X-6791Y48720D01*
X6457Y48972D01*
X8376Y48719D01*
D02*
G37*
%LPC*%
G36*
X-37508Y-19335D02*
X-37680Y-19358D01*
X-38306Y-19617D01*
X-38844Y-20030D01*
X-39257Y-20568D01*
X-39516Y-21194D01*
X-39539Y-21366D01*
X-37508D01*
Y-19335D01*
D02*
G37*
G36*
X-34477Y-22366D02*
X-36508D01*
Y-24397D01*
X-36336Y-24375D01*
X-35709Y-24115D01*
X-35171Y-23702D01*
X-34759Y-23165D01*
X-34499Y-22538D01*
X-34477Y-22366D01*
D02*
G37*
G36*
X-26189Y-18548D02*
X-30610D01*
X-31384Y-18702D01*
X-32041Y-19140D01*
X-32479Y-19797D01*
X-32633Y-20571D01*
Y-21055D01*
X-26189D01*
Y-18548D01*
D02*
G37*
G36*
X-36508Y-19335D02*
Y-21366D01*
X-34477D01*
X-34499Y-21194D01*
X-34759Y-20568D01*
X-35171Y-20030D01*
X-35709Y-19617D01*
X-36336Y-19358D01*
X-36508Y-19335D01*
D02*
G37*
G36*
X-37508Y-22366D02*
X-39539D01*
X-39516Y-22538D01*
X-39257Y-23165D01*
X-38844Y-23702D01*
X-38306Y-24115D01*
X-37680Y-24375D01*
X-37508Y-24397D01*
Y-22366D01*
D02*
G37*
G36*
X-18745Y-22055D02*
X-25189D01*
Y-24563D01*
X-20768D01*
X-19994Y-24408D01*
X-19337Y-23970D01*
X-18899Y-23314D01*
X-18745Y-22539D01*
Y-22055D01*
D02*
G37*
G36*
X-26189D02*
X-32633D01*
Y-22539D01*
X-32479Y-23314D01*
X-32041Y-23970D01*
X-31384Y-24408D01*
X-30610Y-24563D01*
X-26189D01*
Y-22055D01*
D02*
G37*
G36*
X3893D02*
X-2551D01*
Y-24563D01*
X1870D01*
X2644Y-24408D01*
X3301Y-23970D01*
X3739Y-23314D01*
X3893Y-22539D01*
Y-22055D01*
D02*
G37*
G36*
X-3551D02*
X-9996D01*
Y-22539D01*
X-9842Y-23314D01*
X-9403Y-23970D01*
X-8747Y-24408D01*
X-7972Y-24563D01*
X-3551D01*
Y-22055D01*
D02*
G37*
G36*
X-3748Y-9689D02*
X-8169D01*
X-8944Y-9843D01*
X-9600Y-10282D01*
X-10038Y-10938D01*
X-10192Y-11713D01*
Y-12197D01*
X-3748D01*
Y-9689D01*
D02*
G37*
G36*
X3696Y-13197D02*
X-2748D01*
Y-15704D01*
X1673D01*
X2447Y-15550D01*
X3104Y-15112D01*
X3542Y-14455D01*
X3696Y-13681D01*
Y-13197D01*
D02*
G37*
G36*
X1870Y-831D02*
X-7972D01*
X-8747Y-985D01*
X-9403Y-1424D01*
X-9842Y-2080D01*
X-9996Y-2854D01*
Y-4823D01*
X-9842Y-5597D01*
X-9403Y-6253D01*
X-8747Y-6692D01*
X-7972Y-6846D01*
X-3799D01*
X-3760Y-6862D01*
X-3760Y-6862D01*
X-3412Y-7007D01*
X-3412Y-7007D01*
X-3412Y-7007D01*
X-3063Y-7151D01*
X-2736Y-7287D01*
X-2735Y-7287D01*
X-2735Y-7287D01*
X-2715Y-7296D01*
X-2715Y-7296D01*
X1967Y-9238D01*
X1821Y-9719D01*
X1673Y-9689D01*
X-2748D01*
Y-12197D01*
X3696D01*
Y-11713D01*
X3542Y-10938D01*
X3963Y-10684D01*
X3971Y-10695D01*
X4509Y-11107D01*
X5135Y-11367D01*
X5807Y-11455D01*
X6479Y-11367D01*
X7106Y-11107D01*
X7643Y-10695D01*
X8056Y-10157D01*
X8316Y-9530D01*
X8404Y-8858D01*
X8316Y-8186D01*
X8056Y-7560D01*
X7643Y-7022D01*
X7106Y-6609D01*
X6479Y-6350D01*
X5807Y-6261D01*
X5135Y-6350D01*
X4825Y-6478D01*
X3878Y-6085D01*
X3733Y-5606D01*
X3739Y-5597D01*
X3893Y-4823D01*
Y-2854D01*
X3739Y-2080D01*
X3301Y-1424D01*
X2644Y-985D01*
X1870Y-831D01*
D02*
G37*
G36*
X4232Y46301D02*
X3457Y46199D01*
X2735Y45900D01*
X2115Y45424D01*
X1639Y44804D01*
X1340Y44082D01*
X1238Y43307D01*
X1292Y42896D01*
X915Y42511D01*
X379Y42504D01*
X-1Y42885D01*
X41Y43209D01*
X-61Y43984D01*
X-360Y44706D01*
X-836Y45326D01*
X-1456Y45802D01*
X-2178Y46101D01*
X-2953Y46203D01*
X-3728Y46101D01*
X-4450Y45802D01*
X-5070Y45326D01*
X-5546Y44706D01*
X-5845Y43984D01*
X-5947Y43209D01*
X-5911Y42933D01*
X-6234Y42471D01*
X-6307Y42461D01*
X-7265Y42335D01*
X-8227Y41937D01*
X-9053Y41303D01*
X-9380Y40877D01*
X-10010D01*
X-10337Y41303D01*
X-11163Y41937D01*
X-12124Y42335D01*
X-13156Y42471D01*
X-14188Y42335D01*
X-15150Y41937D01*
X-15975Y41303D01*
X-16609Y40478D01*
X-17007Y39516D01*
X-17143Y38484D01*
X-17007Y37452D01*
X-16609Y36491D01*
X-16136Y35874D01*
X-16382Y35374D01*
X-17830D01*
X-18077Y35874D01*
X-17978Y36003D01*
X-17679Y36725D01*
X-17577Y37500D01*
X-17679Y38275D01*
X-17978Y38997D01*
X-18454Y39617D01*
X-19074Y40093D01*
X-19796Y40392D01*
X-20571Y40494D01*
X-21346Y40392D01*
X-22068Y40093D01*
X-22688Y39617D01*
X-23164Y38997D01*
X-23463Y38275D01*
X-23565Y37500D01*
X-23463Y36725D01*
X-23164Y36003D01*
X-23065Y35874D01*
X-23311Y35374D01*
X-29528D01*
X-29994Y35281D01*
X-30390Y35016D01*
X-30655Y34620D01*
X-30748Y34154D01*
Y31335D01*
X-31248Y31140D01*
X-32137Y31508D01*
X-33169Y31644D01*
X-34201Y31508D01*
X-35163Y31110D01*
X-35988Y30477D01*
X-36622Y29651D01*
X-37020Y28689D01*
X-37156Y27657D01*
X-37020Y26626D01*
X-36773Y26028D01*
X-36808Y25905D01*
X-37102Y25517D01*
X-37941Y25406D01*
X-38903Y25008D01*
X-39729Y24374D01*
X-40362Y23549D01*
X-40760Y22587D01*
X-40896Y21555D01*
X-40760Y20523D01*
X-40362Y19562D01*
X-39944Y19017D01*
X-40215Y18548D01*
X-40256Y18554D01*
X-41288Y18418D01*
X-42249Y18020D01*
X-43075Y17386D01*
X-43709Y16560D01*
X-44107Y15599D01*
X-44243Y14567D01*
X-44107Y13535D01*
X-43709Y12573D01*
X-43075Y11748D01*
X-42249Y11114D01*
X-41288Y10716D01*
X-40256Y10580D01*
X-39224Y10716D01*
X-38263Y11114D01*
X-37437Y11748D01*
X-36885Y12467D01*
X-36593Y12564D01*
X-36272Y12549D01*
X-35556Y12000D01*
X-34595Y11602D01*
X-33563Y11466D01*
X-32531Y11602D01*
X-31570Y12000D01*
X-31196Y12286D01*
X-30748Y12065D01*
Y2657D01*
X-30655Y2190D01*
X-30390Y1795D01*
X-29994Y1530D01*
X-29528Y1437D01*
X29528D01*
X29994Y1530D01*
X30390Y1795D01*
X30655Y2190D01*
X30748Y2657D01*
Y11694D01*
X31196Y11916D01*
X31471Y11705D01*
X32433Y11306D01*
X33465Y11171D01*
X34496Y11306D01*
X35458Y11705D01*
X36284Y12338D01*
X36434Y12534D01*
X36998Y12448D01*
X37535Y11748D01*
X38361Y11114D01*
X39323Y10716D01*
X40354Y10580D01*
X41386Y10716D01*
X42348Y11114D01*
X43174Y11748D01*
X43807Y12573D01*
X44205Y13535D01*
X44341Y14567D01*
X44205Y15599D01*
X43807Y16560D01*
X43174Y17386D01*
X42348Y18020D01*
X41386Y18418D01*
X40753Y18501D01*
X40532Y19035D01*
X40559Y19070D01*
X40957Y20031D01*
X41093Y21063D01*
X40957Y22095D01*
X40559Y23056D01*
X39925Y23882D01*
X39100Y24516D01*
X38138Y24914D01*
X37415Y25009D01*
X37086Y25523D01*
X37217Y25838D01*
X37353Y26870D01*
X37217Y27902D01*
X36819Y28863D01*
X36185Y29689D01*
X35360Y30323D01*
X34398Y30721D01*
X33366Y30857D01*
X32334Y30721D01*
X31373Y30323D01*
X31196Y30187D01*
X30748Y30409D01*
Y34154D01*
X30655Y34620D01*
X30390Y35016D01*
X29994Y35281D01*
X29528Y35374D01*
X23114D01*
X22868Y35874D01*
X22967Y36003D01*
X23266Y36725D01*
X23368Y37500D01*
X23266Y38275D01*
X22967Y38997D01*
X22491Y39617D01*
X21871Y40093D01*
X21149Y40392D01*
X20374Y40494D01*
X19599Y40392D01*
X18877Y40093D01*
X18648Y39917D01*
X18165Y40047D01*
X17987Y40478D01*
X17353Y41303D01*
X16527Y41937D01*
X15566Y42335D01*
X14534Y42471D01*
X13502Y42335D01*
X12541Y41937D01*
X11715Y41303D01*
X11388Y40877D01*
X10758D01*
X10431Y41303D01*
X9605Y41937D01*
X8643Y42335D01*
X7611Y42471D01*
X7175Y42918D01*
X7226Y43307D01*
X7124Y44082D01*
X6825Y44804D01*
X6349Y45424D01*
X5729Y45900D01*
X5007Y46199D01*
X4232Y46301D01*
D02*
G37*
G36*
X-20768Y-831D02*
X-30610D01*
X-31384Y-985D01*
X-32041Y-1424D01*
X-32479Y-2080D01*
X-32633Y-2854D01*
Y-4823D01*
X-32479Y-5597D01*
X-32041Y-6253D01*
X-31384Y-6692D01*
X-30610Y-6846D01*
X-20768D01*
X-19994Y-6692D01*
X-19337Y-6253D01*
X-18899Y-5597D01*
X-18745Y-4823D01*
Y-2854D01*
X-18899Y-2080D01*
X-19337Y-1424D01*
X-19994Y-985D01*
X-20768Y-831D01*
D02*
G37*
G36*
X-3551Y-18548D02*
X-7972D01*
X-8747Y-18702D01*
X-9403Y-19140D01*
X-9842Y-19797D01*
X-9996Y-20571D01*
Y-21055D01*
X-3551D01*
Y-18548D01*
D02*
G37*
G36*
X-20768D02*
X-25189D01*
Y-21055D01*
X-18745D01*
Y-20571D01*
X-18899Y-19797D01*
X-19337Y-19140D01*
X-19994Y-18702D01*
X-20768Y-18548D01*
D02*
G37*
G36*
X1870D02*
X-2551D01*
Y-21055D01*
X3893D01*
Y-20571D01*
X3739Y-19797D01*
X3301Y-19140D01*
X2644Y-18702D01*
X1870Y-18548D01*
D02*
G37*
G36*
X-3748Y-13197D02*
X-10192D01*
Y-13681D01*
X-10038Y-14455D01*
X-9600Y-15112D01*
X-8944Y-15550D01*
X-8169Y-15704D01*
X-3748D01*
Y-13197D01*
D02*
G37*
G36*
X36720Y-1641D02*
X16430D01*
X16201Y-1687D01*
X15972Y-1730D01*
X15968Y-1733D01*
X15963Y-1734D01*
X15769Y-1863D01*
X15574Y-1991D01*
X9774Y-7693D01*
X9771Y-7697D01*
X9767Y-7700D01*
X9638Y-7893D01*
X9506Y-8086D01*
X9505Y-8092D01*
X9503Y-8096D01*
X9457Y-8325D01*
X9410Y-8553D01*
X9411Y-8558D01*
X9410Y-8563D01*
Y-12205D01*
X9503Y-12672D01*
X9767Y-13068D01*
X13015Y-16316D01*
X13411Y-16580D01*
X13878Y-16673D01*
X39272D01*
X39739Y-16580D01*
X40135Y-16316D01*
X43481Y-12969D01*
X43745Y-12573D01*
X43838Y-12106D01*
Y-8760D01*
X43745Y-8293D01*
X43481Y-7897D01*
X37583Y-1999D01*
X37187Y-1734D01*
X36720Y-1641D01*
D02*
G37*
%LPD*%
D10*
X-3248Y-12697D02*
D03*
X-3051Y-3839D02*
D03*
Y-21555D02*
D03*
X-25689Y-3839D02*
D03*
Y-21555D02*
D03*
D11*
X-3345Y-5061D02*
X-3340Y-5063D01*
X-3375Y-5049D02*
X-3345Y-5061D01*
X-2017Y-5612D02*
X5807Y-8858D01*
X-2037Y-5604D02*
X-2017Y-5612D01*
X-2365Y-5468D02*
X-2037Y-5604D01*
X-2713Y-5323D02*
X-2365Y-5468D01*
X-3062Y-5179D02*
X-2713Y-5323D01*
X-3271Y-5092D02*
X-3062Y-5179D01*
X-3410Y-5034D02*
X-3375Y-5049D01*
X-3410Y-5034D02*
X-3410Y-5034D01*
X-3410Y-5034D02*
X-3410D01*
X-3445Y-5020D02*
X-3410Y-5034D01*
X-3375Y-5049D02*
X-3375Y-5049D01*
X-3306Y-5078D02*
X-3271Y-5092D01*
X-3306Y-5077D02*
X-3306Y-5078D01*
X-3306Y-5077D02*
X-3306Y-5077D01*
X-3340Y-5063D02*
X-3306Y-5077D01*
D12*
X-37008Y-21866D02*
D03*
X5807Y-8858D02*
D03*
D13*
X20374Y37500D02*
D03*
X-20571D02*
D03*
X-2953Y43209D02*
D03*
X4232Y43307D02*
D03*
M02*
